<svg width="20" height="20" viewBox="0 0 20 20" fill="none" xmlns="http://www.w3.org/2000/svg">
<path d="M20 10.2228C20 9.40052 19.9319 8.80048 19.7846 8.17822H10.2041V11.8895H15.8276C15.7143 12.8118 15.1021 14.2008 13.7415 15.1342L13.7224 15.2584L16.7516 17.5583L16.9615 17.5788C18.8889 15.8343 20 13.2674 20 10.2228" fill="#4285F4"/>
<path d="M10.2041 20.0011C12.9592 20.0011 15.272 19.1121 16.9614 17.5788L13.7415 15.1341C12.8798 15.723 11.7233 16.1342 10.2041 16.1342C7.50571 16.1342 5.21548 14.3897 4.39907 11.9784L4.27941 11.9884L1.12963 14.3774L1.08844 14.4896C2.76642 17.7565 6.21314 20.0011 10.2041 20.0011Z" fill="#34A853"/>
<path d="M4.39904 11.9785C4.18363 11.3563 4.05896 10.6895 4.05896 10.0006C4.05896 9.31166 4.18363 8.64497 4.38771 8.02272L4.382 7.8902L1.19275 5.46277L1.08841 5.51141C0.396829 6.86707 0 8.38942 0 10.0006C0 11.6118 0.396829 13.1341 1.08841 14.4898L4.39904 11.9785" fill="#FBBC05"/>
<path d="M10.2041 3.86689C12.1202 3.86689 13.4127 4.67805 14.1497 5.35592L17.0295 2.60017C15.2608 0.988958 12.9592 0 10.2041 0C6.21314 0 2.76643 2.24457 1.08844 5.51143L4.38774 8.02274C5.21548 5.61148 7.50571 3.86689 10.2041 3.86689" fill="#EB4335"/>
</svg>
