<svg width="31" height="35" viewBox="0 0 31 35" fill="none" xmlns="http://www.w3.org/2000/svg">
<g clip-path="url(#clip0_85_760)">
<path d="M26.0381 6.6377C23.1738 3.7666 19.3594 2.1875 15.3057 2.1875C6.93848 2.1875 0.129883 8.99609 0.129883 17.3633C0.129883 20.0361 0.827148 22.6475 2.15332 24.9512L0 32.8125L8.0459 30.7002C10.2607 31.9102 12.7559 32.5459 15.2988 32.5459H15.3057C23.666 32.5459 30.625 25.7373 30.625 17.3701C30.625 13.3164 28.9023 9.50879 26.0381 6.6377ZM15.3057 29.9893C13.0361 29.9893 10.8145 29.3809 8.87988 28.2324L8.42188 27.959L3.65039 29.21L4.92188 24.5547L4.62109 24.0762C3.35645 22.0664 2.69336 19.749 2.69336 17.3633C2.69336 10.4111 8.35352 4.75098 15.3125 4.75098C18.6826 4.75098 21.8477 6.06348 24.2266 8.44922C26.6055 10.835 28.0684 14 28.0615 17.3701C28.0615 24.3291 22.2578 29.9893 15.3057 29.9893ZM22.2236 20.542C21.8477 20.3506 19.9814 19.4346 19.6328 19.3115C19.2842 19.1816 19.0312 19.1201 18.7783 19.5029C18.5254 19.8857 17.8008 20.7334 17.5752 20.9932C17.3564 21.2461 17.1309 21.2803 16.7549 21.0889C14.5264 19.9746 13.0635 19.0996 11.5938 16.5771C11.2041 15.9072 11.9834 15.9551 12.708 14.5059C12.8311 14.2529 12.7695 14.0342 12.6738 13.8428C12.5781 13.6514 11.8193 11.7852 11.5049 11.0264C11.1973 10.2881 10.8828 10.3906 10.6504 10.377C10.4316 10.3633 10.1787 10.3633 9.92578 10.3633C9.67285 10.3633 9.2627 10.459 8.91406 10.835C8.56543 11.2178 7.58789 12.1338 7.58789 14C7.58789 15.8662 8.94824 17.6709 9.13281 17.9238C9.32422 18.1768 11.8057 22.0049 15.6133 23.6523C18.0195 24.6914 18.9629 24.7803 20.166 24.6025C20.8975 24.4932 22.4082 23.6865 22.7227 22.7979C23.0371 21.9092 23.0371 21.1504 22.9414 20.9932C22.8525 20.8223 22.5996 20.7266 22.2236 20.542Z" fill="#4ECB71"/>
</g>
<defs>
<clipPath id="clip0_85_760">
<rect width="30.625" height="35" fill="white"/>
</clipPath>
</defs>
</svg>
