<svg width="253" height="237" viewBox="0 0 253 237" fill="none" xmlns="http://www.w3.org/2000/svg">
<g clip-path="url(#clip0_41_383)">
<path d="M233.874 181.312L245.224 183.088C249.066 178.43 251.714 172.902 252.939 166.985C244.64 173.789 232.019 170.173 221.956 173.888C218.826 175.071 216.002 176.944 213.693 179.368C211.384 181.792 209.65 184.706 208.618 187.893L203.071 193.87C208.092 195.861 213.484 196.738 218.876 196.441C224.268 196.143 229.532 194.679 234.304 192.148C236.967 190.702 239.438 188.925 241.658 186.86C237.687 184.356 233.874 181.312 233.874 181.312Z" fill="#F2F2F2"/>
<path d="M229.845 163.131L240.794 159.652C242.159 153.766 242.068 147.635 240.529 141.792C236.131 151.589 223.225 153.991 215.872 161.81C213.597 164.267 211.904 167.205 210.917 170.406C209.93 173.607 209.674 176.99 210.17 180.303L207.867 188.131C213.248 187.67 218.464 186.046 223.158 183.371C227.851 180.697 231.91 177.035 235.055 172.638C236.795 170.154 238.215 167.46 239.283 164.62C234.613 164.153 229.845 163.131 229.845 163.131Z" fill="#F2F2F2"/>
<path d="M253 197.491C253 197.55 252.989 197.608 252.966 197.662C252.944 197.716 252.911 197.765 252.87 197.807C252.828 197.848 252.779 197.881 252.725 197.904C252.671 197.926 252.613 197.937 252.554 197.937H0.445588C0.327411 197.937 0.214073 197.89 0.130509 197.806C0.046945 197.723 0 197.609 0 197.491C0 197.373 0.046945 197.259 0.130509 197.175C0.214073 197.092 0.327411 197.045 0.445588 197.045H252.554C252.613 197.044 252.671 197.056 252.725 197.078C252.779 197.101 252.828 197.133 252.87 197.175C252.911 197.216 252.944 197.266 252.966 197.32C252.989 197.374 253 197.432 253 197.491Z" fill="#CCCCCC"/>
<path d="M104.469 178.465C148.931 178.465 184.974 142.365 184.974 97.8329C184.974 53.3012 148.931 17.2012 104.469 17.2012C60.0069 17.2012 23.9635 53.3012 23.9635 97.8329C23.9635 142.365 60.0069 178.465 104.469 178.465Z" fill="#E6E6E6"/>
<path d="M173.741 97.8329C173.749 108.659 171.224 119.336 166.368 129.008C161.513 138.681 154.462 147.079 145.781 153.529C145.201 153.964 144.609 154.388 144.014 154.8C132.405 162.882 118.606 167.214 104.469 167.214C90.3313 167.214 76.5322 162.882 64.9238 154.8C64.3284 154.388 63.7368 153.964 63.1564 153.529C54.4815 147.073 47.435 138.674 42.5801 129.003C37.7253 119.332 35.1968 108.657 35.1968 97.8329C35.1968 87.0084 37.7253 76.334 42.5801 66.6631C47.435 56.9922 54.4815 48.593 63.1564 42.137C63.7368 41.702 64.3284 41.2782 64.9238 40.8656C76.5322 32.7838 90.3313 28.4521 104.469 28.4521C118.606 28.4521 132.405 32.7838 144.014 40.8656C144.609 41.2782 145.201 41.702 145.781 42.137C154.462 48.5873 161.513 56.9853 166.368 66.6575C171.224 76.3297 173.749 87.007 173.741 97.8329Z" fill="white"/>
<path d="M104.469 161.213C139.418 161.213 167.75 132.837 167.75 97.8329C167.75 62.8289 139.418 34.4526 104.469 34.4526C69.5197 34.4526 41.1879 62.8289 41.1879 97.8329C41.1879 132.837 69.5197 161.213 104.469 161.213Z" fill="#E4A923"/>
<path opacity="0.2" d="M104.634 34.6298C103.675 34.6298 102.721 34.6549 101.772 34.6972C117.766 36.1049 132.628 43.5491 143.346 55.5217C154.065 67.4943 159.839 83.1 159.498 99.1772C159.157 115.254 152.727 130.601 141.511 142.107C130.295 153.613 115.132 160.419 99.0927 161.146C100.919 161.305 102.766 161.39 104.634 161.39C121.417 161.39 137.513 154.713 149.38 142.827C161.248 130.941 167.915 114.82 167.915 98.0101C167.915 81.2006 161.248 65.0796 149.38 53.1935C137.513 41.3073 121.417 34.6298 104.634 34.6298Z" fill="#3F3D56"/>
<path d="M104.656 29.9522C104.11 29.9532 103.587 30.1708 103.201 30.5574C102.815 30.944 102.598 31.4681 102.597 32.0149V41.0157C102.597 41.5627 102.814 42.0874 103.2 42.4742C103.586 42.861 104.11 43.0783 104.656 43.0783C105.202 43.0783 105.726 42.861 106.112 42.4742C106.498 42.0874 106.715 41.5627 106.715 41.0157V32.0149C106.714 31.4681 106.497 30.944 106.111 30.5574C105.725 30.1708 105.202 29.9532 104.656 29.9522Z" fill="white"/>
<path d="M145.781 42.137C145.201 41.702 144.609 41.2782 144.014 40.8656C143.656 40.8423 143.299 40.9127 142.978 41.0699C142.656 41.2271 142.381 41.4656 142.179 41.762L137.12 49.1988C136.813 49.6509 136.697 50.2067 136.799 50.7441C136.901 51.2814 137.212 51.7562 137.663 52.0641C138.114 52.3719 138.669 52.4876 139.206 52.3856C139.742 52.2836 140.217 51.9723 140.524 51.5203L145.583 44.0834C145.775 43.8013 145.894 43.4754 145.929 43.1355C145.963 42.7955 145.913 42.4523 145.781 42.137Z" fill="white"/>
<path d="M168.764 76.0473C168.663 75.7966 168.513 75.5684 168.323 75.3757C168.133 75.1831 167.907 75.0298 167.658 74.9246C167.409 74.8195 167.142 74.7644 166.872 74.7628C166.602 74.7611 166.334 74.8127 166.083 74.9147L157.756 78.3013C157.25 78.5075 156.847 78.9063 156.635 79.41C156.423 79.9138 156.419 80.4812 156.625 80.9877C156.83 81.4941 157.228 81.8982 157.731 82.1111C158.234 82.3239 158.8 82.3282 159.306 82.1228L167.634 78.7363C168.139 78.529 168.542 78.1297 168.753 77.6257C168.965 77.1218 168.969 76.5542 168.764 76.0473Z" fill="white"/>
<path d="M71.8173 49.1989L66.7586 41.762C66.557 41.4657 66.2817 41.2271 65.96 41.0699C65.6382 40.9127 65.281 40.8423 64.9238 40.8656C64.3284 41.2782 63.7368 41.702 63.1564 42.137C63.0249 42.4523 62.9741 42.7955 63.0088 43.1355C63.0434 43.4754 63.1624 43.8013 63.3549 44.0834L68.4136 51.5203C68.721 51.9724 69.195 52.2836 69.7315 52.3856C70.268 52.4876 70.823 52.3719 71.2744 52.0641C71.7257 51.7562 72.0365 51.2814 72.1383 50.7441C72.2401 50.2068 72.1246 49.6509 71.8173 49.1989Z" fill="white"/>
<path d="M51.1817 78.3013L42.8541 74.9148C42.3482 74.709 41.7813 74.7129 41.2783 74.9257C40.7752 75.1385 40.3771 75.5426 40.1716 76.0493C39.966 76.5561 39.9699 77.1238 40.1822 77.6277C40.3946 78.1316 40.798 78.5303 41.3039 78.7363L49.6315 82.1228C50.1374 82.3281 50.7039 82.3239 51.2067 82.111C51.7094 81.8982 52.1072 81.4941 52.3127 80.9876C52.5181 80.4812 52.5144 79.9137 52.3023 79.41C52.0903 78.9063 51.6872 78.5075 51.1817 78.3013Z" fill="white"/>
<path d="M104.656 152.588C104.11 152.588 103.587 152.806 103.201 153.193C102.815 153.579 102.598 154.103 102.597 154.65V163.651C102.597 164.198 102.814 164.723 103.2 165.109C103.586 165.496 104.11 165.714 104.656 165.714C105.202 165.714 105.726 165.496 106.112 165.109C106.498 164.723 106.715 164.198 106.715 163.651V154.65C106.714 154.103 106.497 153.579 106.111 153.193C105.725 152.806 105.202 152.588 104.656 152.588Z" fill="white"/>
<path d="M145.583 151.582L140.524 144.146C140.372 143.922 140.177 143.73 139.951 143.582C139.725 143.433 139.472 143.331 139.206 143.28C138.94 143.23 138.667 143.232 138.403 143.287C138.138 143.343 137.887 143.449 137.663 143.602C137.44 143.754 137.248 143.949 137.1 144.176C136.952 144.402 136.85 144.656 136.799 144.922C136.749 145.188 136.751 145.461 136.806 145.726C136.861 145.992 136.968 146.243 137.12 146.467L142.179 153.904C142.38 154.2 142.656 154.439 142.978 154.596C143.299 154.753 143.656 154.824 144.014 154.8C144.609 154.388 145.201 153.964 145.781 153.529C145.913 153.214 145.963 152.87 145.929 152.53C145.894 152.19 145.775 151.865 145.583 151.582Z" fill="white"/>
<path d="M167.634 116.93L159.306 113.543C158.8 113.337 158.233 113.341 157.73 113.554C157.227 113.767 156.829 114.171 156.623 114.678C156.418 115.184 156.422 115.752 156.634 116.256C156.846 116.76 157.25 117.159 157.756 117.365L166.083 120.751C166.589 120.956 167.156 120.952 167.659 120.739C168.161 120.526 168.559 120.122 168.765 119.616C168.97 119.109 168.966 118.542 168.754 118.038C168.542 117.535 168.139 117.136 167.634 116.93Z" fill="white"/>
<path d="M71.2743 143.602C70.8229 143.294 70.268 143.178 69.7316 143.28C69.1951 143.382 68.7211 143.694 68.4136 144.146L63.3549 151.582C63.1624 151.865 63.0434 152.19 63.0088 152.53C62.9741 152.87 63.0249 153.214 63.1564 153.529C63.7368 153.964 64.3284 154.388 64.9238 154.8C65.281 154.824 65.6382 154.753 65.96 154.596C66.2817 154.439 66.557 154.2 66.7586 153.904L71.8173 146.467C71.9695 146.243 72.0762 145.991 72.1313 145.726C72.1864 145.461 72.1888 145.188 72.1384 144.922C72.0879 144.656 71.9857 144.402 71.8374 144.176C71.6892 143.949 71.4978 143.754 71.2743 143.602Z" fill="white"/>
<path d="M52.3126 114.676C52.2109 114.425 52.0609 114.197 51.8711 114.004C51.6813 113.811 51.4554 113.658 51.2064 113.553C50.9574 113.448 50.6902 113.393 50.42 113.391C50.1498 113.389 49.8819 113.441 49.6316 113.543L41.304 116.93C40.7985 117.136 40.3954 117.535 40.1834 118.038C39.9713 118.542 39.9676 119.109 40.1731 119.616C40.3785 120.122 40.7763 120.526 41.279 120.739C41.7818 120.952 42.3483 120.956 42.8542 120.751L51.1818 117.365C51.6871 117.157 52.0897 116.758 52.3017 116.254C52.5136 115.75 52.5176 115.182 52.3126 114.676Z" fill="white"/>
<path d="M107.328 96.8095C107.518 97.9369 107.254 99.0939 106.594 100.027C105.933 100.959 104.93 101.591 103.805 101.784L67.2601 108.01C66.7026 108.105 66.1319 108.09 65.5806 107.964C65.0293 107.838 64.5081 107.604 64.0469 107.277C63.5856 106.949 63.1933 106.533 62.8924 106.054C62.5914 105.574 62.3877 105.04 62.2929 104.482C62.1981 103.924 62.214 103.352 62.3397 102.8C62.4655 102.248 62.6985 101.726 63.0257 101.264C63.3528 100.802 63.7676 100.409 64.2464 100.107C64.7251 99.8059 65.2585 99.6019 65.8159 99.5069L102.361 93.2809C103.487 93.0904 104.642 93.355 105.573 94.0165C106.504 94.678 107.135 95.6824 107.328 96.8095Z" fill="#3F3D56"/>
<path d="M145.791 137.362C145.266 137.891 144.553 138.189 143.808 138.192C143.064 138.195 142.348 137.902 141.819 137.378L102.479 98.2847C101.951 97.7592 101.653 97.0452 101.651 96.2996C101.648 95.5541 101.941 94.838 102.465 94.3088C102.99 93.7795 103.702 93.4804 104.446 93.4771C105.191 93.4738 105.906 93.7667 106.435 94.2913L145.775 133.384C146.303 133.91 146.601 134.624 146.604 135.37C146.607 136.116 146.315 136.832 145.791 137.362Z" fill="#3F3D56"/>
<path d="M104.469 102.708C107.157 102.708 109.337 100.526 109.337 97.8329C109.337 95.1403 107.157 92.9575 104.469 92.9575C101.78 92.9575 99.6011 95.1403 99.6011 97.8329C99.6011 100.526 101.78 102.708 104.469 102.708Z" fill="#CCCCCC"/>
<path d="M70.9396 13.2929C63.4677 25.0586 52.0671 32.8668 38.0074 37.9964C37.7296 38.2048 37.4135 38.3563 37.0772 38.4424C36.7409 38.5284 36.391 38.5473 36.0474 38.4979C35.7038 38.4485 35.3733 38.3318 35.0748 38.1545C34.7762 37.9772 34.5154 37.7427 34.3074 37.4644C26.6703 27.2514 28.3947 12.6549 38.4741 4.85098C40.9109 2.96753 43.697 1.58766 46.6707 0.791476C49.6443 -0.00470776 52.7462 -0.201347 55.7964 0.21298C58.8465 0.627306 61.7841 1.64434 64.4386 3.20504C67.0931 4.76574 69.4116 6.83902 71.2595 9.30451L71.4708 9.58699C71.6788 9.86525 71.8302 10.1818 71.9161 10.5187C72.002 10.8555 72.0208 11.206 71.9715 11.5501C71.9222 11.8942 71.8057 12.2253 71.6286 12.5243C71.4516 12.8233 71.2174 13.0845 70.9396 13.2929Z" fill="#E6E6E6"/>
<path d="M137.678 9.30451C139.526 6.83902 141.844 4.76574 144.499 3.20504C147.153 1.64434 150.091 0.627308 153.141 0.212981C156.191 -0.201345 159.293 -0.00471188 162.267 0.791471C165.24 1.58765 168.027 2.96753 170.463 4.85097C180.543 12.6549 182.267 27.2514 174.63 37.4644C174.422 37.7427 174.161 37.9772 173.863 38.1545C173.564 38.3318 173.234 38.4485 172.89 38.4979C172.547 38.5473 172.197 38.5284 171.86 38.4424C171.524 38.3563 171.208 38.2048 170.93 37.9964C157.878 32.9914 147.175 24.3304 137.998 13.2929C137.437 12.872 137.066 12.2451 136.966 11.5501C136.866 10.8551 137.047 10.149 137.467 9.58698L137.678 9.30451Z" fill="#E6E6E6"/>
<path d="M134.403 167.689C133.927 167.957 133.577 168.403 133.428 168.929C133.28 169.455 133.346 170.019 133.612 170.497L145.497 191.769C145.764 192.247 146.209 192.598 146.735 192.747C147.26 192.895 147.823 192.829 148.3 192.562C148.776 192.295 149.127 191.849 149.276 191.323C149.424 190.796 149.358 190.232 149.091 189.755L137.206 168.482C136.938 168.005 136.493 167.654 135.968 167.506C135.443 167.357 134.88 167.423 134.403 167.689Z" fill="#E6E6E6"/>
<path d="M71.7317 168.482L59.8461 189.755C59.5796 190.232 59.5132 190.796 59.6617 191.323C59.8101 191.849 60.1613 192.295 60.6379 192.562C61.1144 192.829 61.6774 192.895 62.203 192.747C62.7286 192.598 63.1737 192.247 63.4405 191.769L75.326 170.497C75.4582 170.26 75.5425 170 75.5743 169.731C75.606 169.462 75.5846 169.189 75.5111 168.929C75.4376 168.668 75.3136 168.424 75.146 168.212C74.9785 167.999 74.7708 167.821 74.5348 167.689C74.2987 167.557 74.039 167.472 73.7704 167.441C73.5017 167.409 73.2295 167.43 72.9692 167.504C72.7089 167.578 72.4656 167.702 72.2533 167.87C72.041 168.038 71.8637 168.246 71.7317 168.482Z" fill="#E6E6E6"/>
<path d="M147.904 197.216C151.42 197.216 154.27 194.362 154.27 190.841C154.27 187.32 151.42 184.465 147.904 184.465C144.389 184.465 141.539 187.32 141.539 190.841C141.539 194.362 144.389 197.216 147.904 197.216Z" fill="#E6E6E6"/>
<path d="M152.398 34.0776C155.913 34.0776 158.763 31.2232 158.763 27.702C158.763 24.1809 155.913 21.3265 152.398 21.3265C148.882 21.3265 146.032 24.1809 146.032 27.702C146.032 31.2232 148.882 34.0776 152.398 34.0776Z" fill="#E6E6E6"/>
<path d="M104.094 19.0763C107.61 19.0763 110.46 16.2219 110.46 12.7008C110.46 9.17968 107.61 6.32526 104.094 6.32526C100.579 6.32526 97.7288 9.17968 97.7288 12.7008C97.7288 16.2219 100.579 19.0763 104.094 19.0763Z" fill="#E6E6E6"/>
<path d="M58.0378 33.3275C61.5534 33.3275 64.4033 30.4731 64.4033 26.952C64.4033 23.4309 61.5534 20.5764 58.0378 20.5764C54.5222 20.5764 51.6722 23.4309 51.6722 26.952C51.6722 30.4731 54.5222 33.3275 58.0378 33.3275Z" fill="#E6E6E6"/>
<path d="M62.1567 197.216C65.6723 197.216 68.5222 194.362 68.5222 190.841C68.5222 187.32 65.6723 184.465 62.1567 184.465C58.6411 184.465 55.7911 187.32 55.7911 190.841C55.7911 194.362 58.6411 197.216 62.1567 197.216Z" fill="#E6E6E6"/>
<path d="M142.911 133.776C143.162 134.17 143.496 134.503 143.89 134.754C144.283 135.004 144.727 135.165 145.189 135.225C145.651 135.285 146.121 135.242 146.565 135.101C147.01 134.959 147.417 134.722 147.76 134.405L157.749 139.766L157.213 133.892L147.81 129.702C147.241 129.161 146.493 128.847 145.709 128.821C144.924 128.795 144.158 129.058 143.554 129.56C142.95 130.062 142.551 130.769 142.432 131.546C142.314 132.323 142.484 133.116 142.911 133.776Z" fill="#FFB7B7"/>
<path d="M150.189 135.826L154.103 130.414L172.96 139.343L196.425 134.933C197.585 134.715 198.779 134.755 199.921 135.052C201.064 135.348 202.127 135.892 203.036 136.646C203.945 137.4 204.677 138.345 205.18 139.414C205.683 140.483 205.945 141.65 205.947 142.832C205.949 144.967 205.105 147.015 203.601 148.528C202.096 150.04 200.054 150.893 197.923 150.899L171.032 150.949L150.189 135.826Z" fill="#3F3D56"/>
<path d="M144.16 229.294L140.2 227.397L145.64 210.818L151.485 213.618L144.16 229.294Z" fill="#FFB7B7"/>
<path d="M170.71 226.621C170.422 226.802 170.134 226.979 169.844 227.157C169.265 227.513 168.68 227.862 168.095 228.206C167.801 228.378 167.505 228.55 167.211 228.719V228.728L167.194 228.731L167.188 228.733L166.74 228.844L166.097 227.143L165.8 226.359L165.381 225.249L164.613 223.218L160.57 212.526L166.856 210.973L167.092 211.937H167.095L167.211 212.415L169.407 221.336L169.855 223.16L169.87 223.215L170.14 224.305L170.373 225.249L170.632 226.304L170.71 226.621Z" fill="#FFB7B7"/>
<path d="M208.21 189.071C207.812 189.712 207.405 190.35 206.994 190.982C206.232 192.159 205.45 193.319 204.647 194.461C204.647 194.464 204.644 194.464 204.641 194.467C204.173 194.901 203.655 195.28 203.099 195.594C203.076 195.612 203.05 195.624 203.027 195.638C202.617 195.865 202.181 196.04 201.729 196.16C201.566 196.2 201.401 196.241 201.238 196.282C200.65 196.422 200.068 196.541 199.489 196.646C198.46 196.83 197.441 196.961 196.429 197.042C196.348 197.051 196.266 197.057 196.185 197.063C192.022 197.369 187.97 196.876 183.74 196.069C181.652 195.673 179.519 195.198 177.312 194.706C176.59 194.543 175.866 194.382 175.133 194.222C175.077 194.211 175.019 194.196 174.961 194.184C173.914 193.954 172.849 193.727 171.758 193.503C170.385 193.22 168.969 192.946 167.497 192.687L167.601 194.764C167.689 196.362 168.02 197.937 168.585 199.434C169.213 201.276 169.71 202.733 168.66 205.766L168.154 207.234C168.417 207.963 168.507 208.743 168.417 209.513C168.328 210.283 168.062 211.022 167.639 211.671L167.537 211.826L171.758 222.521L172.032 223.215H169.87L167.212 223.218H162.706L156.204 210.153L155.893 209.53V209.498L156.565 184.392C156.574 184.171 156.591 183.946 156.62 183.725C156.739 182.718 157.056 181.745 157.554 180.863C158.052 179.98 158.72 179.206 159.52 178.585C160.287 177.985 161.165 177.544 162.103 177.287C163.042 177.03 164.022 176.962 164.986 177.088L167.212 177.376L171.758 177.965L174.961 178.381L175.025 178.39L184.47 179.614L185.148 176.846L185.273 176.799L189.25 175.34L203.003 170.291L203.038 170.279L203.943 169.947L204.051 170.122C204.083 170.174 204.115 170.226 204.144 170.279C205.038 171.884 205.766 173.577 206.317 175.331C207.243 178.196 208.005 181.111 208.6 184.063C208.626 184.191 208.65 184.308 208.67 184.412L208.679 184.444C208.687 184.494 208.693 184.526 208.696 184.535C209.013 185.857 208.792 187.472 208.21 189.071Z" fill="#2F2E41"/>
<path d="M208.791 179.819C208.747 179.632 208.692 179.443 208.634 179.259C208.172 177.869 207.634 176.506 207.022 175.175C206.336 173.66 205.513 172.037 204.532 170.28C204.058 169.429 203.548 168.544 203.002 167.626C202.729 167.165 202.445 166.696 202.15 166.219C202.138 166.197 202.126 166.175 202.112 166.154L202.028 166.015L188.42 167.838L183.352 168.517L183.05 171.046L182.977 171.673C182.974 171.673 182.974 171.673 182.977 171.676L182.773 173.383V173.386L182.503 175.641L182.479 175.638L174.96 174.662L167.21 173.657L163.048 173.118C162.083 172.992 161.103 173.059 160.165 173.317C159.226 173.574 158.348 174.015 157.582 174.615C156.782 175.236 156.114 176.011 155.616 176.893C155.118 177.775 154.8 178.748 154.682 179.755C154.655 179.959 154.638 180.168 154.629 180.375L150.702 189.696C148.352 195.27 146.856 201.167 146.263 207.188L143.383 216.41L143.793 216.448L149.896 217.016L151.508 217.167L155.057 211.978C155.461 211.387 155.845 210.778 156.203 210.154C156.792 209.136 157.316 208.081 157.771 206.996L165.448 188.699C166.041 188.801 166.629 188.898 167.21 188.991C169.901 189.428 172.484 189.784 174.96 190.06C183.009 190.96 189.979 191.03 196.184 190.267C197.926 190.054 199.61 189.774 201.236 189.428C201.833 189.302 202.421 189.167 203.002 189.023C203.139 188.991 203.273 188.959 203.406 188.924C204.609 188.613 205.714 188.006 206.621 187.157C207.528 186.308 208.208 185.244 208.599 184.064C209.065 182.696 209.132 181.223 208.791 179.819Z" fill="#2F2E41"/>
<path d="M145.425 226.587L141.14 224.53L140.468 224.206L139.395 226.846L131.902 228.498C131.531 228.579 131.196 228.777 130.946 229.063C130.696 229.348 130.543 229.706 130.511 230.085C130.478 230.463 130.568 230.842 130.765 231.167C130.963 231.491 131.259 231.743 131.611 231.886L138.933 234.879L141.257 232.784L140.687 235.595L143.444 236.723L146.467 227.088L145.425 226.587Z" fill="#2F2E41"/>
<path d="M171.758 222.521L172.032 223.215H171.758V222.521Z" fill="#2F2E41"/>
<path d="M170.266 223.363L165.776 224.921L165.072 225.165L166.163 227.797L161.999 234.251C161.793 234.57 161.694 234.947 161.717 235.326C161.74 235.705 161.883 236.067 162.126 236.359C162.369 236.651 162.698 236.858 163.066 236.948C163.435 237.039 163.822 237.01 164.173 236.864L171.478 233.83L171.657 230.704L173.228 233.104L175.979 231.961L171.358 222.985L170.266 223.363Z" fill="#2F2E41"/>
<path d="M207.671 184.04C207.405 184.04 207.142 183.974 206.906 183.85L183.213 171.45L182.94 170.328L182.424 166.776L182.431 166.742L184.684 156.338C184.643 156.248 184.557 156.102 184.459 155.936C183.453 154.229 180.392 149.034 186.234 141.88L196.492 129.902L205.297 129.522L205.397 129.649C207.751 132.609 209.339 136.105 210.019 139.827C210.699 143.549 210.45 147.381 209.295 150.984L208.378 167.567L209.361 170.916C209.936 172.884 209.841 174.987 209.091 176.895L209.317 182.318C209.325 182.54 209.289 182.762 209.211 182.97C209.132 183.178 209.012 183.368 208.859 183.529C208.705 183.689 208.521 183.818 208.317 183.905C208.113 183.993 207.893 184.039 207.671 184.04Z" fill="#3F3D56"/>
<path d="M187.12 197.716C187.521 197.478 187.865 197.156 188.129 196.77C188.392 196.385 188.568 195.947 188.644 195.486C188.72 195.025 188.694 194.554 188.568 194.104C188.442 193.654 188.22 193.238 187.916 192.884L193.612 183.072L187.733 183.404L183.225 192.67C182.665 193.221 182.326 193.959 182.272 194.743C182.219 195.527 182.455 196.304 182.935 196.926C183.415 197.548 184.106 197.972 184.877 198.117C185.648 198.263 186.446 198.12 187.12 197.716Z" fill="#FFB7B7"/>
<path d="M189.418 190.502L184.154 186.396L193.719 167.831L190.135 144.19C189.958 143.022 190.04 141.828 190.375 140.695C190.71 139.562 191.29 138.516 192.074 137.633C192.858 136.749 193.827 136.049 194.911 135.583C195.995 135.116 197.169 134.895 198.348 134.934C200.479 135.006 202.493 135.922 203.95 137.481C205.407 139.039 206.187 141.113 206.119 143.247L205.233 170.166L189.418 190.502Z" fill="#3F3D56"/>
<path d="M190.845 124.925V116.199C190.843 113.098 192.071 110.123 194.259 107.929C196.447 105.735 199.416 104.501 202.512 104.499C205.608 104.497 208.578 105.727 210.769 107.918C212.959 110.11 214.191 113.083 214.193 116.184V116.199C216.251 120.493 214.964 122.535 214.193 124.925C214.193 125.341 214.027 125.74 213.733 126.034C213.44 126.328 213.041 126.494 212.626 126.495H192.413C191.998 126.494 191.599 126.328 191.305 126.034C191.011 125.74 190.846 125.341 190.845 124.925Z" fill="#2F2E41"/>
<path d="M198.692 125.927C203.518 125.927 207.43 122.009 207.43 117.175C207.43 112.342 203.518 108.423 198.692 108.423C193.865 108.423 189.953 112.342 189.953 117.175C189.953 122.009 193.865 125.927 198.692 125.927Z" fill="#FFB7B7"/>
<path d="M207.837 119.47C207.757 119.457 207.678 119.441 207.599 119.428C206.236 119.186 204.873 118.948 203.514 118.702L203.389 115.616L201.742 118.38C197.987 119.628 194.473 118.923 191.167 117.366C190.077 116.847 189.019 116.263 187.999 115.616C188.277 113.91 188.932 112.287 189.916 110.867C190.901 109.447 192.19 108.265 193.689 107.408C193.814 107.337 193.935 107.275 194.06 107.212L194.062 107.212L194.063 107.211L194.064 107.21L194.064 107.208C194.277 107.108 194.494 107.012 194.71 106.924C196.407 106.26 198.258 106.092 200.046 106.439C201.835 106.786 203.488 107.635 204.815 108.886C207.482 111.437 208.683 115.65 207.837 119.47Z" fill="#2F2E41"/>
</g>
<defs>
<clipPath id="clip0_41_383">
<rect width="253" height="237" fill="white"/>
</clipPath>
</defs>
</svg>
