<svg width="252" height="238" viewBox="0 0 252 238" fill="none" xmlns="http://www.w3.org/2000/svg">
<path d="M82.7535 29.3698C88.0063 29.3698 92.2647 23.8112 92.2647 16.9544C92.2647 10.0977 88.0063 4.53912 82.7535 4.53912C77.5006 4.53912 73.2423 10.0977 73.2423 16.9544C73.2423 23.8112 77.5006 29.3698 82.7535 29.3698Z" fill="#FFB6B6"/>
<path d="M87.7935 31.9894L75.2742 36.6585L73.4858 41.9113L69.4617 67.0077V106.695C69.4617 106.695 64.5434 120.702 67.2261 132.959C70.0937 146.06 80.1925 130.597 87.7935 132.361C95.3945 134.126 107.467 135.877 107.467 135.877L100.313 93.2715L98.5243 41.3277L87.7935 31.9894Z" fill="#E6E6E6"/>
<path d="M85.431 21.0201L83.4972 19.7581C83.4972 19.7581 83.0138 14.0787 82.0469 12.8166C81.0801 11.5546 81.0801 10.9235 81.0801 10.9235L82.5304 8.39937C82.5304 8.39937 75.2789 13.4477 73.8287 10.2925C72.3784 7.13729 74.3121 5.87522 74.3121 5.87522L71.8949 3.35106C71.8949 3.35106 74.7955 5.87522 75.2789 3.9821C75.7624 2.08898 78.6629 0.804545 78.6629 0.804545C78.6629 0.804545 84.997 2.6753 84.4888 0.804545C83.9807 -1.06621 85.9144 0.826907 86.3978 1.45794C86.8812 2.08898 91.2321 8.39937 91.7155 7.76833C92.199 7.13729 94.6161 9.03041 94.1327 9.66145C93.6493 10.2925 93.6493 10.9235 94.1327 11.5546C94.6161 12.1856 97.5167 19.127 95.0995 21.6512C92.6824 24.1753 89.2984 27.3305 89.7818 29.8547C90.2652 32.3788 89.7818 21.6512 85.431 21.0201Z" fill="#2F2E41"/>
<path d="M38.5453 52.2786C36.1041 49.5317 35.2111 45.6609 36.5506 43.6332C37.8901 41.6055 40.9544 42.189 43.3962 44.9373C44.3831 46.0177 45.1575 47.3909 45.6545 48.9421L55.8853 60.7515L51.5374 66.9003L41.9133 54.6055C40.6644 54.1921 39.5094 53.3942 38.5453 52.2786Z" fill="#FFB6B6"/>
<path d="M73.5931 42.112L80.3322 41.3123L86.2422 78.1051C87.3684 85.1158 83.8478 91.9604 78.4503 93.2537L73.5931 94.4175L42.6347 58.8368L47.1577 48.9945L69.9881 67.6885L73.5931 42.112Z" fill="#E6E6E6"/>
<path d="M58.5478 205.734C58.5478 205.734 53.2027 218.692 53.5845 218.193C53.9663 217.695 60.4568 220.685 60.4568 220.685L64.2747 207.727L58.5478 205.734Z" fill="#FFB6B6"/>
<path d="M50.6585 115.032C50.6585 115.032 47.9224 129.309 48.1984 128.703C48.4744 128.098 55.3292 128.91 55.3292 128.91L56.5852 115.124L50.6585 115.032Z" fill="#FFB6B6"/>
<path d="M98.2545 112.632C86.1751 114.847 75.2646 112.916 66.3746 103.817C66.3746 103.817 59.8841 132.224 71.7197 135.214C83.5554 138.205 96.7273 133.065 98.2545 128.081C99.7817 123.098 98.2545 112.632 98.2545 112.632Z" fill="#2F2E41"/>
<path d="M75.7286 121.603L62.5566 162.126L56.4479 208.973L64.4656 211.465L78.807 168.356L98.2545 127.085L75.7286 121.603Z" fill="#2F2E41"/>
<path d="M74.0105 110.047C74.0105 110.047 70.9561 79.1476 65.2292 77.1541C62.4373 76.1823 59.8269 76.2764 57.8845 76.6282C55.9268 76.9827 54.3661 78.9352 54.0238 81.4761L48.8195 120.107H56.1789L58.5478 109.642L64.8474 124.001L74.0105 110.047Z" fill="#2F2E41"/>
<path d="M55.3025 124.998L48.0259 124.001L46.903 129.483C46.903 129.483 35.0674 143.437 41.1761 144.434C47.2848 145.431 53.0118 139.949 53.0118 139.949L61.415 133.656C61.415 133.656 58.166 122.35 55.8752 122.35C53.5845 122.35 55.3025 124.998 55.3025 124.998Z" fill="#2F2E41"/>
<path d="M59.1205 218.442L51.8438 217.446L50.721 222.928C50.721 222.928 38.8853 236.882 44.9941 237.879C51.1028 238.876 56.8297 233.394 56.8297 233.394L65.233 227.101C65.233 227.101 64.6565 215.296 62.3657 215.296C60.075 215.296 59.1205 218.442 59.1205 218.442Z" fill="#2F2E41"/>
<path d="M95.9646 142.997C95.0872 146.925 92.8234 149.518 90.9085 148.788C88.9936 148.059 88.153 144.284 89.0311 140.355C89.3653 138.779 89.9839 137.331 90.8349 136.131L94.7133 119.55L100.635 122.092L96.1833 138.168C96.4069 139.777 96.3319 141.433 95.9646 142.997Z" fill="#FFB6B6"/>
<path d="M100.064 41.3998L96.9757 40.263C94.0639 47.8255 92.8118 56.2921 93.358 64.726L94.8821 88.2592L89.8532 129.623L99.7097 132.951L107.477 81.0419L100.064 41.3998Z" fill="#E6E6E6"/>
<path d="M170.56 19.209C170.56 19.209 174.202 21.9963 173.007 24.7528C171.813 27.5092 170.149 31.2639 171.278 32.4464C172.407 33.6289 174.272 38.8425 174.272 38.8425C174.272 38.8425 182.231 37.3915 181.483 45.4614C180.736 53.5313 176.997 54.6315 180.202 58.1816C183.407 61.7318 176.871 65.9777 176.871 65.9777C176.871 65.9777 172.36 64.1425 171.33 58.4989C170.301 52.8553 172.248 62.8141 171.595 63.5282C170.942 64.2422 168.407 68.949 166.613 62.6911C164.819 56.4333 166.595 54.007 164.225 50.3136C161.854 46.6203 160.243 40.6465 160.313 39.6023C160.384 38.558 157.602 29.0292 161.884 25.313C166.166 21.5968 170.56 19.209 170.56 19.209Z" fill="#2F2E41"/>
<path d="M206.425 106.768C208.539 109.051 211.155 109.479 212.268 107.722C213.382 105.966 212.57 102.691 210.455 100.407C209.62 99.4796 208.627 98.8266 207.558 98.5029L198.508 88.974L195.173 94.6134L204.449 103.408C204.893 104.718 205.57 105.87 206.425 106.768Z" fill="#FFB6B6"/>
<path d="M179.299 54.7998C179.299 54.7998 172.197 48.5994 169.871 51.6397C167.545 54.6801 168.1 62.274 168.1 62.274L186.727 90.6094L201.496 102.864L205.456 94.7692L193.039 80.3061L179.299 54.7998Z" fill="#3F3D56"/>
<path d="M168.888 41.3687L171.465 53.3257H157.321L161.978 38.5929L168.888 41.3687Z" fill="#FFB6B6"/>
<path opacity="0.1" d="M168.888 41.3687L171.465 53.3257H157.321L161.978 38.5929L168.888 41.3687Z" fill="#3F3D56"/>
<path d="M138.042 129.651C137.859 133.225 139.124 136.245 140.866 136.396C142.609 136.548 144.169 133.773 144.351 130.198C144.439 128.771 144.264 127.337 143.84 126.017L144.467 110.861L139.013 110.628L138.973 125.594C138.419 126.83 138.1 128.221 138.042 129.651Z" fill="#FFB6B6"/>
<path d="M154.467 70.5351C154.467 70.5351 154.166 59.3885 150.916 58.7042C147.666 58.02 143.273 63.0498 143.273 63.0498L136.56 99.344L137.584 122.149L144.931 121.608L146.655 100.001L154.467 70.5351Z" fill="#3F3D56"/>
<path d="M185.973 203.74C185.973 203.74 191.319 216.698 190.937 216.2C190.555 215.701 184.064 218.692 184.064 218.692L180.246 205.734L185.973 203.74Z" fill="#FFB6B6"/>
<path d="M193.863 113.039C193.863 113.039 196.599 127.316 196.323 126.71C196.047 126.104 189.192 126.916 189.192 126.916L187.936 113.13L193.863 113.039Z" fill="#FFB6B6"/>
<path d="M172.611 49.3388H159.266L144.74 62.2964L140.54 107.648L142.831 116.619L147.03 127.085C147.03 127.085 142.831 104.16 153.139 113.13C163.447 122.101 164.211 123.596 164.211 123.596L177.956 114.625L183.11 77.4967L179.292 57.0635L172.611 49.3388Z" fill="#3F3D56"/>
<path d="M146.267 110.638C158.346 112.853 169.257 110.922 178.147 101.823C178.147 101.823 184.637 130.231 172.801 133.221C160.966 136.211 147.794 131.072 146.267 126.088C144.74 121.104 146.267 110.638 146.267 110.638Z" fill="#2F2E41"/>
<path d="M168.793 119.609L181.965 160.133L188.073 206.98L180.056 209.472L165.714 166.363L146.267 125.091L168.793 119.609Z" fill="#2F2E41"/>
<path d="M170.511 108.053C170.511 108.053 173.565 77.1541 179.292 75.1606C182.084 74.1888 184.694 74.2829 186.637 74.6347C188.594 74.9892 190.155 76.9417 190.497 79.4826L195.702 118.114H188.342L185.973 107.648L179.674 122.008L170.511 108.053Z" fill="#2F2E41"/>
<path d="M189.219 123.004L196.495 122.008L197.618 127.49C197.618 127.49 209.454 141.444 203.345 142.441C197.236 143.438 191.509 137.955 191.509 137.955L183.106 131.663C183.106 131.663 186.355 120.357 188.646 120.357C190.937 120.357 189.219 123.004 189.219 123.004Z" fill="#2F2E41"/>
<path d="M185.401 216.449L192.677 215.452L193.8 220.934C193.8 220.934 205.636 234.889 199.527 235.885C193.418 236.882 187.691 231.4 187.691 231.4L179.288 225.108C179.288 225.108 179.865 213.303 182.155 213.303C184.446 213.303 185.401 216.449 185.401 216.449Z" fill="#2F2E41"/>
<path d="M165.528 43.9671C170.232 43.9671 174.046 38.9889 174.046 32.8481C174.046 26.7073 170.232 21.7291 165.528 21.7291C160.823 21.7291 157.009 26.7073 157.009 32.8481C157.009 38.9889 160.823 43.9671 165.528 43.9671Z" fill="#FFB6B6"/>
<path d="M168.793 20.4319C168.793 20.4319 170.213 25.6208 167.941 26.7327C165.67 27.8446 162.546 29.3271 162.83 31.1802C163.114 33.0334 161.978 38.5929 161.978 38.5929C161.978 38.5929 168.793 44.1524 164.25 49.7119C159.707 55.2714 156.3 52.9804 157.009 58.3882C157.719 63.7959 150.621 61.5721 150.621 61.5721C150.621 61.5721 148.065 56.3833 150.053 51.1944C152.041 46.0056 148.633 55.2714 147.782 55.2714C146.93 55.2714 142.671 56.7539 144.374 50.4531C146.078 44.1524 148.633 43.7818 148.633 38.9635C148.633 34.1453 150.337 28.2152 150.905 27.4739C151.473 26.7327 154.028 17.0962 159.139 17.8375C164.25 18.5787 168.793 20.4319 168.793 20.4319Z" fill="#2F2E41"/>
<path d="M94.3426 203.74C94.3426 203.74 88.9975 216.698 89.3792 216.2C89.761 215.701 96.2516 218.692 96.2516 218.692L100.07 205.734L94.3426 203.74Z" fill="#A0616A"/>
<path d="M134.049 110.638C121.97 112.853 111.059 110.922 102.169 101.823C102.169 101.823 95.6788 130.231 107.514 133.221C119.35 136.211 132.522 131.072 134.049 126.088C135.576 121.104 134.049 110.638 134.049 110.638Z" fill="#2F2E41"/>
<path d="M111.523 119.609L98.3514 160.133L92.2427 206.98L100.26 209.472L114.602 166.363L134.049 125.091L111.523 119.609Z" fill="#2F2E41"/>
<path d="M94.9153 216.449L87.6386 215.452L86.5158 220.934C86.5158 220.934 74.6801 234.889 80.7889 235.885C86.8976 236.882 92.6245 231.4 92.6245 231.4L101.028 225.108C101.028 225.108 100.451 213.303 98.1605 213.303C95.8698 213.303 94.9153 216.449 94.9153 216.449Z" fill="#2F2E41"/>
<path d="M106.412 196.923C106.412 196.923 104.39 211.401 104.635 210.773C104.881 210.146 111.761 210.376 111.761 210.376L112.33 196.513L106.412 196.923Z" fill="#A0616A"/>
<path d="M102.871 109.977L99.9189 153.828L105.18 200.85L113.395 199.992L116.849 153.21L125.594 106.12L102.871 109.977Z" fill="#2F2E41"/>
<path d="M109.96 208.781L102.803 210.763L103.03 216.43C103.03 216.43 95.07 234.47 101.116 232.958C107.163 231.446 111.315 223.925 111.315 223.925L117.821 214.556C117.821 214.556 114.483 203.559 112.304 204.482C110.124 205.404 109.96 208.781 109.96 208.781Z" fill="#2F2E41"/>
<path d="M109.755 19.209C109.755 19.209 106.114 21.9963 107.309 24.7528C108.503 27.5092 110.167 31.2639 109.038 32.4464C107.909 33.6289 106.044 38.8425 106.044 38.8425C106.044 38.8425 98.0854 37.3915 98.8326 45.4614C99.5797 53.5313 103.319 54.6315 100.114 58.1816C96.9093 61.7318 103.445 65.9777 103.445 65.9777C103.445 65.9777 107.956 64.1425 108.986 58.4989C110.015 52.8553 108.068 62.8141 108.721 63.5282C109.374 64.2422 111.909 68.949 113.703 62.6911C115.497 56.4333 113.721 54.007 116.091 50.3136C118.462 46.6203 120.073 40.6465 120.003 39.6023C119.932 38.558 122.714 29.0292 118.432 25.313C114.15 21.5968 109.755 19.209 109.755 19.209Z" fill="#2F2E41"/>
<path d="M111.428 41.3687L108.851 53.3257H122.995L118.338 38.5929L111.428 41.3687Z" fill="#A0616A"/>
<path opacity="0.1" d="M111.428 41.3687L108.851 53.3257H122.995L118.338 38.5929L111.428 41.3687Z" fill="#3F3D56"/>
<path d="M142.274 129.651C142.457 133.225 141.192 136.245 139.449 136.396C137.707 136.548 136.147 133.773 135.965 130.198C135.877 128.771 136.052 127.337 136.476 126.017L135.848 110.861L141.303 110.628L141.342 125.594C141.897 126.83 142.216 128.221 142.274 129.651Z" fill="#A0616A"/>
<path d="M125.849 70.5351C125.849 70.5351 126.15 59.3885 129.4 58.7042C132.65 58.02 137.043 63.0498 137.043 63.0498L143.756 99.344L142.732 122.149L135.385 121.608L133.661 100.001L125.849 70.5351Z" fill="#E4A923"/>
<path d="M107.705 49.3388H121.05L135.576 62.2964L139.776 107.648L137.485 116.619L133.286 127.085C133.286 127.085 137.485 104.16 127.177 113.13C127.074 113.22 126.972 113.309 126.871 113.397C120.235 119.183 111.479 118.589 105.336 111.939L100.451 106.651L103.124 89.2085L101.024 57.0635L107.705 49.3388Z" fill="#E4A923"/>
<path d="M74.3132 106.118C72.1729 108.36 69.5519 108.735 68.4593 106.957C67.3666 105.178 68.2161 101.92 70.3574 99.6784C71.2034 98.7675 72.2042 98.1343 73.2761 97.8317L82.4367 88.4835L85.7057 94.1884L76.3279 102.798C75.8691 104.099 75.1783 105.237 74.3132 106.118Z" fill="#A0616A"/>
<path d="M102.041 54.6943C102.041 54.6943 109.215 48.6356 111.505 51.7217C113.795 54.8078 113.151 62.3899 113.151 62.3899L94.1976 90.3525L79.287 102.313L75.4213 94.1403L88.0053 79.9251L102.041 54.6943Z" fill="#E4A923"/>
<path d="M114.788 43.9671C119.493 43.9671 123.306 38.9889 123.306 32.8481C123.306 26.7073 119.493 21.7291 114.788 21.7291C110.084 21.7291 106.27 26.7073 106.27 32.8481C106.27 38.9889 110.084 43.9671 114.788 43.9671Z" fill="#A0616A"/>
<path d="M110.548 25.3952C110.548 25.3952 109.293 19.9348 111.385 19.9348C113.476 19.9348 121.842 20.4809 122.679 21.5729C123.515 22.665 133.415 33.6251 127.559 42.3616C121.702 51.098 127.559 55.3192 127.559 55.3192C127.559 55.3192 131.881 68.5314 127.698 69.6235C123.515 70.7155 106.357 64.4711 110.548 54.3346C115.096 43.3344 117.212 25.9724 110.548 25.3952Z" fill="#2F2E41"/>
<path d="M63.8207 102.013L63.3899 84.2744C63.3829 83.9865 63.4696 83.7061 63.6279 83.5053C63.7862 83.3044 64.0034 83.199 64.2238 83.2162L75.0073 84.0605C75.2251 84.0774 75.4296 84.2134 75.5681 84.4334C75.7067 84.6533 75.7694 84.9413 75.7402 85.2235L73.916 102.854C73.8608 103.387 73.4954 103.777 73.084 103.742L64.5555 103.006C64.469 102.998 64.3866 102.973 64.3103 102.933C64.0286 102.784 63.8309 102.431 63.8207 102.013Z" fill="#E4A923"/>
<path d="M63.4033 82.615C63.5542 82.5943 63.7563 82.5688 63.9989 82.5422C63.934 82.3845 63.9075 82.1981 63.9352 82.0067L64.1278 80.678C64.1778 80.3332 64.3906 80.0688 64.6571 80.0223C66.2449 79.7452 71.7061 78.9933 75.1449 81.0297C75.36 81.1572 75.4984 81.437 75.5053 81.7452L75.5368 83.1627C75.5406 83.338 75.5016 83.5004 75.4332 83.6351C75.7191 83.7354 76.0041 83.8416 76.2867 83.9572C76.4639 84.0298 76.5907 84.2338 76.6119 84.4745L76.6654 85.0783C76.6993 85.4615 76.4586 85.7909 76.1639 85.7649L63.272 84.6284C62.9787 84.6025 62.7743 84.2371 62.8449 83.8645L62.9935 83.0806C63.0413 82.8281 63.2051 82.6422 63.4033 82.615Z" fill="#3F3D56"/>
<path d="M31.3681 51.6773L30.9373 33.9389C30.9304 33.651 31.017 33.3706 31.1753 33.1698C31.3336 32.9689 31.5508 32.8635 31.7712 32.8807L42.5547 33.725C42.7726 33.7419 42.977 33.8779 43.1155 34.0979C43.2541 34.3178 43.3169 34.6058 43.2877 34.888L41.4634 52.5185C41.4082 53.052 41.0428 53.4419 40.6314 53.4062L32.1029 52.6701C32.0164 52.6626 31.934 52.6374 31.8577 52.5971C31.576 52.4484 31.3783 52.095 31.3681 51.6773Z" fill="#E4A923"/>
<path d="M30.9508 32.2795C31.1016 32.2587 31.3037 32.2332 31.5463 32.2066C31.4815 32.049 31.4549 31.8626 31.4826 31.6712L31.6752 30.3425C31.7252 29.9977 31.938 29.7333 32.2045 29.6868C33.7923 29.4097 39.2535 28.6578 42.6923 30.6942C42.9075 30.8217 43.0459 31.1014 43.0527 31.4097L43.0842 32.8272C43.0881 33.0025 43.0491 33.1649 42.9807 33.2996C43.2665 33.3999 43.5515 33.506 43.8342 33.6217C44.0113 33.6942 44.1381 33.8983 44.1594 34.139L44.2128 34.7428C44.2467 35.1259 44.0061 35.4553 43.7113 35.4293L30.8195 34.2929C30.5261 34.267 30.3218 33.9016 30.3924 33.529L30.5409 32.7451C30.5887 32.4926 30.7526 32.3067 30.9508 32.2795Z" fill="#3F3D56"/>
<path d="M200.503 106.498L200.073 88.7597C200.066 88.4718 200.152 88.1915 200.31 87.9907C200.469 87.7897 200.686 87.6844 200.906 87.7016L211.69 88.5458C211.908 88.5627 212.112 88.6987 212.251 88.9188C212.389 89.1387 212.452 89.4267 212.423 89.7089L210.599 107.339C210.543 107.873 210.178 108.263 209.767 108.227L201.238 107.491C201.152 107.483 201.069 107.458 200.993 107.418C200.711 107.269 200.514 106.916 200.503 106.498Z" fill="#E4A923"/>
<path d="M200.086 87.1003C200.237 87.0796 200.439 87.0541 200.682 87.0275C200.617 86.8699 200.59 86.6834 200.618 86.4921L200.81 85.1634C200.86 84.8185 201.073 84.5542 201.34 84.5077C202.928 84.2305 208.389 83.4786 211.828 85.5151C212.043 85.6425 212.181 85.9223 212.188 86.2306L212.219 87.6481C212.223 87.8233 212.184 87.9858 212.116 88.1204C212.402 88.2208 212.687 88.3269 212.969 88.4426C213.147 88.5151 213.273 88.7192 213.295 88.9599L213.348 89.5637C213.382 89.9468 213.141 90.2762 212.846 90.2502L199.955 89.1137C199.661 89.0879 199.457 88.7224 199.528 88.3498L199.676 87.566C199.724 87.3134 199.888 87.1276 200.086 87.1003Z" fill="#3F3D56"/>
</svg>
