<svg width="294" height="213" viewBox="0 0 294 213" fill="none" xmlns="http://www.w3.org/2000/svg">
<path d="M96.5457 26.2847C102.674 26.2847 107.642 21.31 107.642 15.1735C107.642 9.03697 102.674 4.06232 96.5457 4.06232C90.4173 4.06232 85.4493 9.03697 85.4493 15.1735C85.4493 21.31 90.4173 26.2847 96.5457 26.2847Z" fill="#FFB6B6"/>
<path d="M102.426 28.6292L87.8199 32.8078L85.7334 37.5088L81.0387 59.9691V95.4877C81.0387 95.4877 75.3007 108.024 78.4305 118.993C81.776 130.717 93.5579 116.879 102.426 118.458C111.294 120.037 125.378 121.604 125.378 121.604L117.032 83.474L114.945 36.9865L102.426 28.6292Z" fill="#E6E6E6"/>
<path d="M99.6694 18.8121L97.4134 17.6826C97.4134 17.6826 96.8494 12.5999 95.7214 11.4704C94.5934 10.3409 94.5934 9.7761 94.5934 9.7761L96.2854 7.51708C96.2854 7.51708 87.8254 12.0351 86.1334 9.21134C84.4414 6.38758 86.6974 5.25807 86.6974 5.25807L83.8774 2.99906C83.8774 2.99906 87.2614 5.25807 87.8254 3.56381C88.3894 1.86955 91.7734 0.720034 91.7734 0.720034C91.7734 0.720034 99.1632 2.39428 98.5703 0.720034C97.9774 -0.954214 100.233 0.740047 100.797 1.3048C101.361 1.86955 106.437 7.51708 107.001 6.95233C107.565 6.38758 110.385 8.08183 109.821 8.64659C109.257 9.21135 109.257 9.7761 109.821 10.3409C110.385 10.9056 113.769 17.1179 110.949 19.3769C108.129 21.6359 104.181 24.4597 104.745 26.7187C105.309 28.9777 104.745 19.3769 99.6694 18.8121Z" fill="#2F2E41"/>
<path d="M44.9695 46.7872C42.1214 44.3288 41.0796 40.8646 42.6424 39.0499C44.2051 37.2352 47.7801 37.7574 50.6289 40.217C51.7803 41.1839 52.6837 42.4129 53.2636 43.8011L65.1995 54.37L60.127 59.873L48.8988 48.8696C47.4417 48.4997 46.0944 47.7856 44.9695 46.7872Z" fill="#FFB6B6"/>
<path d="M85.8586 37.6885L93.7209 36.9728L100.616 69.9008C101.93 76.1751 97.8224 82.3007 91.5254 83.4581L85.8586 84.4997L49.7405 52.6565L55.0173 43.848L81.6528 60.5784L85.8586 37.6885Z" fill="#E6E6E6"/>
<path d="M68.3057 184.123C68.3057 184.123 62.0698 195.72 62.5152 195.274C62.9606 194.828 70.5329 197.504 70.5329 197.504L74.9872 185.907L68.3057 184.123Z" fill="#FFB6B6"/>
<path d="M59.1016 102.949C59.1016 102.949 55.9094 115.726 56.2314 115.184C56.5535 114.642 64.5507 115.369 64.5507 115.369L66.016 103.031L59.1016 102.949Z" fill="#FFB6B6"/>
<path d="M114.63 100.801C100.538 102.783 87.8087 101.055 77.437 92.9118C77.437 92.9118 69.8647 118.335 83.673 121.011C97.4812 123.687 112.848 119.088 114.63 114.628C116.412 110.167 114.63 100.801 114.63 100.801Z" fill="#2F2E41"/>
<path d="M88.35 108.829L72.9827 145.096L65.8559 187.022L75.2099 189.252L91.9415 150.672L114.63 113.735L88.35 108.829Z" fill="#2F2E41"/>
<path d="M86.3456 98.4871C86.3456 98.4871 82.7821 70.8338 76.1007 69.0497C72.8435 68.1799 69.798 68.2642 67.5319 68.579C65.2479 68.8963 63.4272 70.6437 63.0278 72.9177L56.9561 107.491H65.542L68.3057 98.1247L75.6553 110.976L86.3456 98.4871Z" fill="#2F2E41"/>
<path d="M64.5196 111.868L56.0302 110.976L54.7202 115.882C54.7202 115.882 40.912 128.371 48.0388 129.263C55.1656 130.155 61.847 125.248 61.847 125.248L71.6508 119.617C71.6508 119.617 67.8603 109.498 65.1878 109.498C62.5152 109.498 64.5196 111.868 64.5196 111.868Z" fill="#2F2E41"/>
<path d="M68.9739 195.497L60.4845 194.605L59.1745 199.511C59.1745 199.511 45.3662 212 52.4931 212.892C59.6199 213.784 66.3013 208.877 66.3013 208.877L76.1051 203.246C76.1051 203.246 75.4326 192.681 72.76 192.681C70.0875 192.681 68.9739 195.497 68.9739 195.497Z" fill="#2F2E41"/>
<path d="M111.959 127.976C110.935 131.491 108.294 133.812 106.06 133.159C103.826 132.507 102.845 129.128 103.87 125.612C104.26 124.202 104.981 122.905 105.974 121.832L110.499 106.992L117.408 109.267L112.214 123.654C112.475 125.095 112.387 126.577 111.959 127.976Z" fill="#FFB6B6"/>
<path d="M116.741 37.0511L113.138 36.0337C109.741 42.8018 108.28 50.3791 108.918 57.927L110.696 78.9883L104.829 116.007L116.328 118.986L125.39 72.5291L116.741 37.0511Z" fill="#E6E6E6"/>
<path d="M198.987 17.1912C198.987 17.1912 203.235 19.6857 201.842 22.1527C200.449 24.6196 198.507 27.9799 199.824 29.0381C201.142 30.0964 203.317 34.7624 203.317 34.7624C203.317 34.7624 212.602 33.4638 211.731 40.686C210.859 47.9082 206.497 48.8928 210.236 52.0701C213.974 55.2473 206.35 59.0473 206.35 59.0473C206.35 59.0473 201.086 57.4048 199.886 52.354C198.685 47.3033 200.956 56.216 200.194 56.855C199.432 57.4941 196.475 61.7064 194.382 56.1059C192.289 50.5054 194.361 48.3339 191.596 45.0286C188.83 41.7232 186.95 36.3769 187.032 35.4424C187.115 34.5078 183.869 25.9799 188.865 22.654C193.861 19.3282 198.987 17.1912 198.987 17.1912Z" fill="#2F2E41"/>
<path d="M240.829 95.5525C243.295 97.5964 246.348 97.9789 247.647 96.407C248.945 94.8351 247.999 91.9045 245.531 89.8602C244.557 89.0301 243.398 88.4457 242.152 88.1559L231.592 79.628L227.701 84.675L238.524 92.5462C239.042 93.7183 239.832 94.7491 240.829 95.5525Z" fill="#FFB6B6"/>
<path d="M209.183 49.0435C209.183 49.0435 200.896 43.4944 198.183 46.2154C195.469 48.9364 196.117 55.7326 196.117 55.7326L217.848 81.0916L235.079 92.0591L239.699 84.8145L225.213 71.8706L209.183 49.0435Z" fill="#3F3D56"/>
<path d="M197.036 37.0233L200.043 47.7243H183.541L188.975 34.539L197.036 37.0233Z" fill="#FFB6B6"/>
<path opacity="0.1" d="M197.036 37.0233L200.043 47.7243H183.541L188.975 34.539L197.036 37.0233Z" fill="#3F3D56"/>
<path d="M161.049 116.032C160.836 119.231 162.311 121.934 164.344 122.069C166.377 122.204 168.197 119.721 168.41 116.522C168.512 115.245 168.308 113.962 167.814 112.78L168.545 99.2159L162.181 99.0078L162.136 112.402C161.489 113.507 161.116 114.752 161.049 116.032Z" fill="#FFB6B6"/>
<path d="M180.212 63.126C180.212 63.126 179.86 53.1502 176.069 52.5378C172.277 51.9254 167.151 56.427 167.151 56.427L159.32 88.9087L160.515 109.319L169.086 108.834L171.097 89.497L180.212 63.126Z" fill="#3F3D56"/>
<path d="M216.969 182.339C216.969 182.339 223.205 193.936 222.76 193.49C222.314 193.044 214.742 195.72 214.742 195.72L210.288 184.123L216.969 182.339Z" fill="#FFB6B6"/>
<path d="M226.173 101.165C226.173 101.165 229.365 113.942 229.043 113.4C228.721 112.858 220.724 113.585 220.724 113.585L219.259 101.247L226.173 101.165Z" fill="#FFB6B6"/>
<path d="M201.379 44.1561H185.81L168.863 55.7527L163.963 96.3406L166.636 104.369L171.535 113.735C171.535 113.735 166.636 93.2185 178.662 101.247C190.689 109.275 191.58 110.613 191.58 110.613L207.615 102.585L213.628 69.3563L209.174 51.0694L201.379 44.1561Z" fill="#3F3D56"/>
<path d="M170.644 99.0168C184.737 100.999 197.466 99.2707 207.838 91.1277C207.838 91.1277 215.41 116.551 201.602 119.227C187.793 121.903 172.426 117.304 170.644 112.843C168.863 108.383 170.644 99.0168 170.644 99.0168Z" fill="#2F2E41"/>
<path d="M196.925 107.045L212.292 143.312L219.419 185.238L210.065 187.468L193.333 148.888L170.644 111.951L196.925 107.045Z" fill="#2F2E41"/>
<path d="M198.929 96.703C198.929 96.703 202.493 69.0497 209.174 67.2656C212.431 66.3959 215.477 66.4801 217.743 66.7949C220.027 67.1122 221.848 68.8596 222.247 71.1336L228.319 105.707H219.733L216.969 96.3406L209.619 109.192L198.929 96.703Z" fill="#2F2E41"/>
<path d="M220.755 110.084L229.245 109.192L230.555 114.098C230.555 114.098 244.363 126.586 237.236 127.478C230.109 128.371 223.428 123.464 223.428 123.464L213.624 117.833C213.624 117.833 217.414 107.714 220.087 107.714C222.76 107.714 220.755 110.084 220.755 110.084Z" fill="#2F2E41"/>
<path d="M216.301 193.713L224.79 192.821L226.1 197.727C226.1 197.727 239.908 210.215 232.782 211.108C225.655 212 218.973 207.093 218.973 207.093L209.17 201.462C209.17 201.462 209.842 190.897 212.515 190.897C215.187 190.897 216.301 193.713 216.301 193.713Z" fill="#2F2E41"/>
<path d="M193.116 39.3487C198.604 39.3487 203.053 34.8935 203.053 29.3977C203.053 23.9019 198.604 19.4467 193.116 19.4467C187.627 19.4467 183.178 23.9019 183.178 29.3977C183.178 34.8935 187.627 39.3487 193.116 39.3487Z" fill="#FFB6B6"/>
<path d="M196.925 18.2857C196.925 18.2857 198.581 22.9295 195.931 23.9246C193.281 24.9197 189.637 26.2465 189.969 27.905C190.3 29.5635 188.975 34.539 188.975 34.539C188.975 34.539 196.925 39.5145 191.625 44.49C186.325 49.4655 182.35 47.4153 183.178 52.255C184.006 57.0947 175.724 55.1045 175.724 55.1045C175.724 55.1045 172.743 50.4607 175.062 45.8168C177.381 41.173 173.406 49.4655 172.412 49.4655C171.418 49.4655 166.449 50.7924 168.437 45.1534C170.424 39.5145 173.406 39.1828 173.406 34.8707C173.406 30.5586 175.393 25.2514 176.056 24.588C176.718 23.9246 179.7 15.3004 185.662 15.9638C191.625 16.6272 196.925 18.2857 196.925 18.2857Z" fill="#2F2E41"/>
<path d="M110.066 182.339C110.066 182.339 103.83 193.936 104.276 193.49C104.721 193.044 112.293 195.72 112.293 195.72L116.748 184.123L110.066 182.339Z" fill="#A0616A"/>
<path d="M156.391 99.0168C142.298 100.999 129.569 99.2707 119.198 91.1277C119.198 91.1277 111.625 116.551 125.434 119.227C139.242 121.903 154.609 117.304 156.391 112.843C158.173 108.383 156.391 99.0168 156.391 99.0168Z" fill="#2F2E41"/>
<path d="M130.111 107.045L114.743 143.312L107.616 185.238L116.97 187.468L133.702 148.888L156.391 111.951L130.111 107.045Z" fill="#2F2E41"/>
<path d="M110.734 193.713L102.245 192.821L100.935 197.727C100.935 197.727 87.1268 210.215 94.2537 211.108C101.38 212 108.062 207.093 108.062 207.093L117.866 201.462C117.866 201.462 117.193 190.897 114.521 190.897C111.848 190.897 110.734 193.713 110.734 193.713Z" fill="#2F2E41"/>
<path d="M124.147 176.238C124.147 176.238 121.788 189.195 122.074 188.633C122.361 188.071 130.388 188.278 130.388 188.278L131.052 175.871L124.147 176.238Z" fill="#A0616A"/>
<path d="M120.016 98.4245L116.572 137.67L122.71 179.752L132.295 178.984L136.324 137.116L146.526 94.9731L120.016 98.4245Z" fill="#2F2E41"/>
<path d="M128.287 186.85L119.937 188.624L120.202 193.696C120.202 193.696 110.915 209.841 117.969 208.488C125.023 207.135 129.867 200.404 129.867 200.404L137.458 192.018C137.458 192.018 133.563 182.177 131.021 183.002C128.479 183.828 128.287 186.85 128.287 186.85Z" fill="#2F2E41"/>
<path d="M128.048 17.1912C128.048 17.1912 123.8 19.6857 125.193 22.1527C126.587 24.6196 128.529 27.9799 127.211 29.0381C125.893 30.0964 123.718 34.7624 123.718 34.7624C123.718 34.7624 114.433 33.4638 115.305 40.686C116.176 47.9082 120.538 48.8928 116.8 52.0701C113.061 55.2473 120.685 59.0473 120.685 59.0473C120.685 59.0473 125.949 57.4048 127.15 52.354C128.351 47.3033 126.079 56.216 126.841 56.855C127.603 57.4941 130.561 61.7064 132.654 56.1059C134.747 50.5054 132.674 48.3339 135.44 45.0286C138.205 41.7232 140.085 36.3769 140.003 35.4424C139.921 34.5078 143.167 25.9799 138.171 22.654C133.175 19.3282 128.048 17.1912 128.048 17.1912Z" fill="#2F2E41"/>
<path d="M129.999 37.0233L126.993 47.7243H143.494L138.061 34.539L129.999 37.0233Z" fill="#A0616A"/>
<path opacity="0.1" d="M129.999 37.0233L126.993 47.7243H143.494L138.061 34.539L129.999 37.0233Z" fill="#3F3D56"/>
<path d="M165.986 116.032C166.199 119.231 164.724 121.934 162.691 122.069C160.658 122.204 158.838 119.721 158.625 116.522C158.523 115.245 158.727 113.962 159.222 112.78L158.49 99.2159L164.854 99.0078L164.9 112.402C165.546 113.507 165.919 114.752 165.986 116.032Z" fill="#A0616A"/>
<path d="M146.824 63.126C146.824 63.126 147.175 53.1502 150.967 52.5378C154.758 51.9254 159.884 56.427 159.884 56.427L167.715 88.9087L166.52 109.319L157.949 108.834L155.938 89.497L146.824 63.126Z" fill="#E4A923"/>
<path d="M125.656 44.1561H141.225L158.173 55.7527L163.072 96.3406L160.4 104.369L155.5 113.735C155.5 113.735 160.4 93.2185 148.373 101.247C148.253 101.327 148.134 101.407 148.016 101.486C140.274 106.663 130.059 106.132 122.892 100.181L117.193 95.4486L120.311 79.8378L117.861 51.0694L125.656 44.1561Z" fill="#E4A923"/>
<path d="M86.6988 94.9711C84.2017 96.9773 81.1439 97.3133 79.8692 95.7218C78.5944 94.1303 79.5855 91.2145 82.0837 89.208C83.0707 88.3928 84.2382 87.8261 85.4887 87.5553L96.1761 79.189L99.99 84.2947L89.0493 92.0003C88.514 93.1643 87.708 94.183 86.6988 94.9711Z" fill="#A0616A"/>
<path d="M119.048 48.9491C119.048 48.9491 127.417 43.5268 130.089 46.2888C132.761 49.0507 132.01 55.8363 132.01 55.8363L109.897 80.8617L92.5015 91.5657L87.9915 84.2516L102.673 71.5296L119.048 48.9491Z" fill="#E4A923"/>
<path d="M133.92 39.3487C139.408 39.3487 143.858 34.8935 143.858 29.3977C143.858 23.9019 139.408 19.4467 133.92 19.4467C128.431 19.4467 123.982 23.9019 123.982 29.3977C123.982 34.8935 128.431 39.3487 133.92 39.3487Z" fill="#A0616A"/>
<path d="M128.973 22.7276C128.973 22.7276 127.508 17.8409 129.949 17.8409C132.389 17.8409 142.149 18.3295 143.125 19.3069C144.101 20.2842 155.651 30.093 148.819 37.9118C141.986 45.7306 148.819 49.5084 148.819 49.5084C148.819 49.5084 153.862 61.3327 148.981 62.3101C144.101 63.2874 124.083 57.6989 128.973 48.6272C134.279 38.7825 136.747 23.2442 128.973 22.7276Z" fill="#2F2E41"/>
<path d="M74.4575 91.2972L73.9549 75.422C73.9468 75.1644 74.0479 74.9135 74.2325 74.7337C74.4172 74.5539 74.6706 74.4596 74.9278 74.4751L87.5085 75.2306C87.7627 75.2457 88.0011 75.3674 88.1628 75.5644C88.3245 75.7612 88.3977 76.0189 88.3636 76.2715L86.2354 92.0501C86.171 92.5275 85.7446 92.8764 85.2646 92.8445L75.3148 92.1857C75.2138 92.179 75.1177 92.1565 75.0287 92.1204C74.7001 91.9873 74.4693 91.671 74.4575 91.2972Z" fill="#E4A923"/>
<path d="M73.9705 73.937C74.1466 73.9184 74.3823 73.8956 74.6654 73.8718C74.5897 73.7307 74.5587 73.5638 74.5911 73.3926L74.8158 72.2035C74.8741 71.8948 75.1224 71.6582 75.4333 71.6166C77.2857 71.3686 83.6571 70.6957 87.669 72.5182C87.92 72.6323 88.0815 72.8827 88.0895 73.1585L88.1262 74.4271C88.1307 74.584 88.0852 74.7294 88.0055 74.8499C88.339 74.9397 88.6714 75.0347 89.0012 75.1382C89.2078 75.2031 89.3558 75.3857 89.3806 75.6012L89.4429 76.1415C89.4825 76.4844 89.2018 76.7792 88.8578 76.7559L73.8174 75.7389C73.4751 75.7157 73.2367 75.3887 73.3191 75.0552L73.4924 74.3537C73.5482 74.1277 73.7393 73.9613 73.9705 73.937Z" fill="#3F3D56"/>
<path d="M36.5962 46.2491L36.0936 30.3739C36.0854 30.1162 36.1866 29.8653 36.3712 29.6856C36.5559 29.5058 36.8093 29.4115 37.0664 29.4269L49.6472 30.1824C49.9013 30.1976 50.1398 30.3193 50.3014 30.5162C50.4632 30.713 50.5364 30.9708 50.5023 31.2233L48.374 47.0019C48.3096 47.4793 47.8833 47.8283 47.4033 47.7963L37.4534 47.1375C37.3525 47.1308 37.2564 47.1083 37.1673 47.0722C36.8387 46.9391 36.608 46.6229 36.5962 46.2491Z" fill="#E4A923"/>
<path d="M36.1092 28.8888C36.2852 28.8702 36.521 28.8474 36.804 28.8236C36.7284 28.6825 36.6974 28.5157 36.7298 28.3444L36.9544 27.1553C37.0127 26.8467 37.2611 26.6101 37.572 26.5685C39.4244 26.3204 45.7958 25.6475 49.8077 27.4701C50.0587 27.5841 50.2202 27.8345 50.2282 28.1104L50.2649 29.379C50.2694 29.5358 50.2239 29.6812 50.1441 29.8017C50.4776 29.8915 50.8101 29.9865 51.1399 30.0901C51.3465 30.1549 51.4944 30.3376 51.5193 30.553L51.5816 31.0934C51.6211 31.4363 51.3404 31.7311 50.9965 31.7078L35.956 30.6907C35.6138 30.6676 35.3754 30.3405 35.4578 30.007L35.631 29.3055C35.6869 29.0795 35.878 28.9132 36.1092 28.8888Z" fill="#3F3D56"/>
<path d="M233.921 95.3114L233.418 79.4362C233.41 79.1785 233.511 78.9277 233.696 78.7479C233.88 78.5681 234.134 78.4738 234.391 78.4892L246.972 79.2448C247.226 79.2599 247.464 79.3816 247.626 79.5785C247.788 79.7754 247.861 80.0331 247.827 80.2856L245.698 96.0642C245.634 96.5417 245.208 96.8906 244.728 96.8587L234.778 96.1998C234.677 96.1931 234.581 96.1706 234.492 96.1346C234.163 96.0015 233.932 95.6852 233.921 95.3114Z" fill="#E4A923"/>
<path d="M233.434 77.9511C233.61 77.9326 233.845 77.9098 234.128 77.886C234.053 77.7449 234.022 77.578 234.054 77.4068L234.279 76.2176C234.337 75.909 234.585 75.6724 234.896 75.6308C236.749 75.3828 243.12 74.7099 247.132 76.5324C247.383 76.6465 247.545 76.8968 247.553 77.1727L247.589 78.4413C247.594 78.5982 247.548 78.7436 247.469 78.8641C247.802 78.9539 248.134 79.0489 248.464 79.1524C248.671 79.2173 248.819 79.3999 248.844 79.6154L248.906 80.1557C248.946 80.4986 248.665 80.7934 248.321 80.7701L233.28 79.7531C232.938 79.7299 232.7 79.4028 232.782 79.0694L232.955 78.3679C233.011 78.1419 233.202 77.9755 233.434 77.9511Z" fill="#3F3D56"/>
</svg>
