<svg width="252" height="238" viewBox="0 0 252 238" fill="none" xmlns="http://www.w3.org/2000/svg">
<g clip-path="url(#clip0_41_68)">
<path d="M252 236.745H81.9464V237.478H252V236.745Z" fill="#3F3D56"/>
<path d="M220.264 112.13C220.591 112.514 220.834 112.963 220.977 113.447C221.12 113.931 221.159 114.44 221.093 114.94C221.026 115.44 220.855 115.921 220.591 116.351C220.327 116.781 219.975 117.151 219.559 117.437L201.959 129.509L194.21 134.671C193.77 134.964 193.236 135.083 192.713 135.005C192.19 134.927 191.714 134.657 191.379 134.248C191.184 134.009 191.043 133.731 190.965 133.433C190.888 133.135 190.877 132.823 190.932 132.52C190.987 132.217 191.107 131.929 191.284 131.677C191.462 131.425 191.692 131.214 191.958 131.059L199.464 126.704L212.564 114.239L204.143 105.202L210.381 100.527L220.264 112.13Z" fill="#A0616A"/>
<path d="M178.879 225.803H174.574L172.017 190.277L182.934 189.966L178.879 225.803Z" fill="#A0616A"/>
<path d="M179.191 237.334C178.043 237.857 177.081 233.616 176.113 234.567C173.405 237.226 169.257 237.805 165.642 236.644L166.907 236.63C166.689 236.56 166.488 236.447 166.315 236.296C166.142 236.146 166.001 235.962 165.901 235.756C165.802 235.55 165.745 235.326 165.734 235.097C165.724 234.869 165.76 234.64 165.84 234.426C165.937 234.169 166.094 233.94 166.298 233.758C166.503 233.575 166.749 233.445 167.015 233.379L169.895 232.659L174.418 224.713L179.035 224.401C180.064 225.712 180.782 227.239 181.136 228.868C181.489 230.496 181.468 232.183 181.075 233.803C180.656 235.511 180.009 236.961 179.191 237.334Z" fill="#2F2E41"/>
<path d="M207.543 225.803H203.238L200.681 190.277L211.91 188.096L207.543 225.803Z" fill="#A0616A"/>
<path d="M207.855 237.334C206.707 237.857 205.745 233.616 204.777 234.567C202.069 237.226 197.921 237.805 194.306 236.644L195.572 236.63C195.353 236.56 195.152 236.447 194.979 236.296C194.806 236.146 194.665 235.962 194.566 235.756C194.466 235.55 194.409 235.326 194.398 235.097C194.388 234.869 194.424 234.64 194.504 234.426C194.601 234.169 194.758 233.94 194.963 233.758C195.167 233.575 195.413 233.445 195.679 233.379L198.559 232.659L203.082 224.713L208.011 224.089L208.135 224.293C209.088 225.827 209.702 227.547 209.937 229.337C210.172 231.128 210.022 232.947 209.497 234.675C209.087 235.988 208.529 237.026 207.855 237.334Z" fill="#2F2E41"/>
<path d="M212.424 101.331C208.465 101.881 205.724 104.048 204.608 108.369L197.331 94.9446C196.9 94.0915 196.79 93.1115 197.023 92.1844C197.256 91.2573 197.815 90.445 198.599 89.8965C199.43 89.3143 200.453 89.0718 201.458 89.2187C202.463 89.3657 203.373 89.8909 204.003 90.6868L212.424 101.331Z" fill="#E4A923"/>
<path d="M220.05 186.538C202.356 194.36 184.249 195.322 165.779 190.277C172.524 164.141 180.487 140.508 180.438 121.095L198.529 119.537L201.314 123.949C207.922 134.417 212.484 146.042 214.757 158.208L220.05 186.538Z" fill="#2F2E41"/>
<path d="M190.419 80.8946C195.587 80.8946 199.776 76.709 199.776 71.5457C199.776 66.3824 195.587 62.1967 190.419 62.1967C185.251 62.1967 181.062 66.3824 181.062 71.5457C181.062 76.709 185.251 80.8946 190.419 80.8946Z" fill="#A0616A"/>
<path d="M200.712 88.062L189.172 88.6853L187.3 78.4014L196.657 76.8435L200.712 88.062Z" fill="#A0616A"/>
<path d="M199.464 121.095L186.821 121.451L180.438 122.342C177.305 112.001 174.667 101.684 181.062 93.0482L188.548 85.5691L199.776 85.2575L199.925 85.3424C201.708 86.3631 203.09 87.9604 203.843 89.8709C204.596 91.7814 204.675 93.8913 204.068 95.8528C201.281 104.9 199.491 113.443 199.464 121.095Z" fill="#E4A923"/>
<path d="M180.126 150.077L179.342 160.786C179.3 161.359 179.052 161.898 178.644 162.304C178.235 162.709 177.694 162.953 177.12 162.992C176.789 163.014 176.457 162.967 176.145 162.853C175.834 162.74 175.549 162.563 175.309 162.334C175.07 162.105 174.881 161.828 174.754 161.522C174.628 161.215 174.567 160.886 174.574 160.555L174.824 150.077L182.622 120.472L182.934 102.397L191.667 102.086L191.043 122.965L180.126 150.077Z" fill="#A0616A"/>
<path d="M192.602 103.644C188.9 102.139 185.442 102.643 182.31 105.825L182.739 90.5644C182.793 89.61 183.189 88.7071 183.856 88.0211C184.522 87.335 185.413 86.9118 186.366 86.829C187.378 86.7411 188.385 87.043 189.181 87.6729C189.977 88.3028 190.502 89.2129 190.648 90.2169L192.602 103.644Z" fill="#E4A923"/>
<path d="M210.225 113.148H181.53C188.224 95.438 190.383 78.962 181.53 64.8456C181.682 60.6057 187.125 56.9301 191.352 57.3362C196.344 57.8157 203.052 61.481 203.987 66.4037L210.225 113.148Z" fill="#2F2E41"/>
<path d="M118.776 56.5577H117.467V20.7339C117.467 18.0111 116.93 15.3149 115.887 12.7994C114.844 10.2838 113.316 7.99814 111.389 6.07282C109.462 4.1475 107.174 2.62025 104.656 1.57828C102.139 0.536313 99.4401 2.23581e-05 96.715 3.05177e-05H20.7519C18.0267 2.45053e-05 15.3282 0.536319 12.8105 1.57829C10.2928 2.62026 8.00511 4.14751 6.07812 6.07283C4.15114 7.99815 2.62257 10.2838 1.57969 12.7994C0.536817 15.3149 5.80264e-05 18.0111 6.10352e-05 20.7339V217.266C5.8886e-05 219.989 0.536817 222.685 1.57969 225.201C2.62257 227.716 4.15114 230.002 6.07812 231.927C8.00511 233.853 10.2928 235.38 12.8105 236.422C15.3282 237.464 18.0267 238 20.7519 238H96.715C99.4401 238 102.139 237.464 104.656 236.422C107.174 235.38 109.462 233.853 111.389 231.927C113.316 230.002 114.844 227.716 115.887 225.201C116.93 222.685 117.467 219.989 117.467 217.266V82.0577H118.776V56.5577Z" fill="#3F3D56"/>
<path d="M97.5523 5.39426H87.6365C88.0925 6.51125 88.2666 7.72315 88.1434 8.92319C88.0202 10.1232 87.6035 11.2746 86.93 12.2758C86.2566 13.2771 85.347 14.0975 84.2815 14.6647C83.2159 15.232 82.0271 15.5288 80.8197 15.5289H37.3014C36.094 15.5288 34.9052 15.232 33.8396 14.6647C32.7741 14.0975 31.8645 13.2771 31.1911 12.2758C30.5176 11.2746 30.1009 10.1232 29.9777 8.92319C29.8545 7.72315 30.0286 6.51125 30.4846 5.39426H21.2233C19.1882 5.39425 17.173 5.79475 15.2928 6.57288C13.4126 7.35101 11.7042 8.49154 10.2651 9.92935C8.82606 11.3671 7.68454 13.0741 6.90573 14.9526C6.12692 16.8312 5.72608 18.8447 5.72607 20.878V217.122C5.72607 219.155 6.12692 221.169 6.90573 223.047C7.68454 224.926 8.82605 226.633 10.2651 228.071C11.7041 229.508 13.4126 230.649 15.2928 231.427C17.173 232.205 19.1882 232.606 21.2233 232.606H97.5523C99.5874 232.606 101.603 232.205 103.483 231.427C105.363 230.649 107.071 229.508 108.51 228.071C109.949 226.633 111.091 224.926 111.87 223.047C112.649 221.169 113.049 219.155 113.049 217.122V20.878C113.049 16.7715 111.417 12.8331 108.51 9.92934C105.604 7.02557 101.662 5.39425 97.5523 5.39426Z" fill="white"/>
<path d="M99.6464 36.0489H19.1293V105.051H99.6464V36.0489Z" fill="#E6E6E6"/>
<path d="M43.0225 119.44C46.2763 119.44 48.914 116.804 48.914 113.553C48.914 110.302 46.2763 107.667 43.0225 107.667C39.7688 107.667 37.131 110.302 37.131 113.553C37.131 116.804 39.7688 119.44 43.0225 119.44Z" fill="#E4A923"/>
<path d="M45.9684 113.063H43.5136V110.61H42.5317V113.063H40.0769V114.044H42.5317V116.497H43.5136V114.044H45.9684V113.063Z" fill="white"/>
<path d="M74.1165 119.44C77.3703 119.44 80.008 116.804 80.008 113.553C80.008 110.302 77.3703 107.667 74.1165 107.667C70.8627 107.667 68.225 110.302 68.225 113.553C68.225 116.804 70.8627 119.44 74.1165 119.44Z" fill="#E4A923"/>
<path d="M77.0623 114.044V113.063H71.1708V114.044H77.0623Z" fill="white"/>
<path d="M99.6464 133.175H19.1293V202.177H99.6464V133.175Z" fill="#E6E6E6"/>
<path d="M43.0225 216.566C46.2763 216.566 48.914 213.93 48.914 210.679C48.914 207.428 46.2763 204.793 43.0225 204.793C39.7688 204.793 37.131 207.428 37.131 210.679C37.131 213.93 39.7688 216.566 43.0225 216.566Z" fill="#E4A923"/>
<path d="M45.9684 210.189H43.5136V207.736H42.5317V210.189H40.0769V211.17H42.5317V213.622H43.5136V211.17H45.9684V210.189Z" fill="white"/>
<path d="M74.1165 216.566C77.3703 216.566 80.008 213.93 80.008 210.679C80.008 207.428 77.3703 204.793 74.1165 204.793C70.8627 204.793 68.225 207.428 68.225 210.679C68.225 213.93 70.8627 216.566 74.1165 216.566Z" fill="#E4A923"/>
<path d="M77.0623 211.17V210.189H71.1708V211.17H77.0623Z" fill="white"/>
<path d="M57.4792 44.4026C58.4504 44.5005 59.4277 44.5233 60.4025 44.4708C60.5686 44.4526 60.7353 44.5005 60.8665 44.604C60.9978 44.7075 61.0831 44.8584 61.1042 45.0242L62.9689 59.0112C63.1123 60.0266 63.528 60.9841 64.1719 61.7822C64.7027 62.4173 65.0973 63.1547 65.3311 63.9487C65.565 64.7427 65.6331 65.5763 65.5313 66.3977V90.1572C65.5313 90.1572 65.6516 93.3252 63.2175 93.3252C60.3043 93.6912 57.3567 93.6912 54.4435 93.3252C54.4435 93.3252 52.4946 92.9563 52.4946 90.0329V66.6383C52.346 65.8221 52.3766 64.9833 52.5843 64.1801C52.792 63.3769 53.1719 62.6285 53.6977 61.9867C54.3199 61.1857 54.7222 60.236 54.8646 59.2318L56.8014 44.952C56.8234 44.7915 56.9057 44.6453 57.0316 44.5433C57.1575 44.4412 57.3175 44.3909 57.4792 44.4026Z" fill="white"/>
<path d="M58.839 94C60.3114 94.0001 61.7823 93.9086 63.2433 93.7261C63.5698 93.7338 63.8943 93.6739 64.1965 93.5502C64.4987 93.4265 64.772 93.2417 64.9994 93.0073C65.9899 91.9785 65.9348 90.2165 65.932 90.1419L65.9323 66.4221C66.0356 65.55 65.9601 64.666 65.7104 63.824C65.4606 62.982 65.0418 62.1998 64.4796 61.5251C63.8836 60.7845 63.4988 59.8966 63.366 58.9552L61.5017 44.9712C61.4654 44.7022 61.3258 44.4579 61.1124 44.2901C60.8991 44.1223 60.6288 44.0442 60.3589 44.0722C59.412 44.1222 58.4626 44.0993 57.5192 44.0037L57.508 44.0027C57.2448 43.9836 56.9841 44.0655 56.7791 44.2317C56.574 44.3979 56.4399 44.636 56.4041 44.8976L54.4671 59.178C54.334 60.1121 53.9597 60.9953 53.381 61.7405C52.8237 62.4216 52.4201 63.215 52.1979 64.0665C51.9757 64.918 51.9401 65.8074 52.0936 66.674V90.0328C52.0936 93.2511 54.3461 93.7149 54.3689 93.7192C55.8516 93.9061 57.3446 93.9999 58.839 94ZM60.457 44.8695C60.5166 44.8667 60.5752 44.8861 60.6213 44.924C60.6674 44.962 60.6977 45.0157 60.7064 45.0747L62.5714 59.0643C62.7248 60.1524 63.17 61.1786 63.8598 62.034C64.3556 62.628 64.7244 63.3172 64.9434 64.0593C65.1625 64.8013 65.2271 65.5803 65.1333 66.3483L65.1303 66.3977V90.1572C65.1311 90.1867 65.1736 91.6725 64.4198 92.4529C64.2638 92.6117 64.0761 92.7357 63.8689 92.8169C63.6617 92.8981 63.4397 92.9347 63.2175 92.9243L63.1674 92.9274C60.2874 93.2888 57.3735 93.2888 54.4935 92.9274C54.4555 92.918 52.8956 92.5622 52.8956 90.0328L52.8891 66.5665C52.7503 65.8075 52.7785 65.0273 52.9717 64.2803C53.1649 63.5333 53.5184 62.8373 54.0078 62.2408C54.6759 61.3826 55.1081 60.3647 55.2615 59.2881L57.1987 45.0058C57.2072 44.9472 57.2373 44.8939 57.283 44.8563C57.3287 44.8187 57.3868 44.7995 57.4459 44.8024C58.4353 44.9014 59.4309 44.9244 60.4239 44.8713C60.4349 44.8701 60.4459 44.8696 60.457 44.8695Z" fill="#3F3D56"/>
<path d="M60.4226 66.8229H57.4672C56.8853 66.8229 56.3091 66.9375 55.7715 67.1602C55.2338 67.3828 54.7454 67.7092 54.3339 68.1207C53.9224 68.5322 53.596 69.0207 53.3734 69.5583C53.1507 70.0959 53.0361 70.6721 53.0361 71.254V82.3738C53.0361 83.549 53.5029 84.676 54.3339 85.507C55.1649 86.338 56.292 86.8049 57.4672 86.8049H60.4226C61.0045 86.8049 61.5807 86.6903 62.1183 86.4676C62.6559 86.2449 63.1444 85.9185 63.5558 85.5071C63.9673 85.0956 64.2937 84.6071 64.5164 84.0695C64.739 83.5319 64.8536 82.9557 64.8536 82.3738V71.254C64.8536 70.0788 64.3868 68.9517 63.5558 68.1207C62.7248 67.2897 61.5978 66.8229 60.4226 66.8229Z" fill="#E4A923"/>
<path d="M49.3226 153.012C49.023 153.012 48.7267 153.074 48.4523 153.195C48.178 153.315 47.9315 153.491 47.7286 153.711C47.5256 153.931 47.3705 154.191 47.2731 154.475C47.1757 154.758 47.1381 155.058 47.1626 155.357C50.4714 163.909 50.0233 173.809 49.5998 185.01C49.6472 185.552 49.8949 186.056 50.2944 186.424C50.694 186.792 51.2166 186.997 51.7598 187H65.742C66.2852 186.997 66.8078 186.792 67.2073 186.424C67.6069 186.056 67.8546 185.552 67.9019 185.01C66.7662 174.128 67.379 164.142 70.3392 155.357C70.3637 155.058 70.3261 154.758 70.2287 154.475C70.1313 154.191 69.9762 153.931 69.7732 153.711C69.5702 153.491 69.3238 153.315 69.0494 153.195C68.7751 153.074 68.4788 153.012 68.1792 153.012H49.3226Z" fill="#E4A923"/>
<path d="M71.4587 156.965L70.4156 152.01C70.3207 151.559 70.0738 151.155 69.7162 150.865C69.3586 150.574 68.9122 150.416 68.4517 150.416H61.9396C61.9141 150.33 61.8726 150.249 61.8172 150.178L61.0936 149.273C61.0254 149.188 60.939 149.119 60.8406 149.072C60.7422 149.025 60.6344 149 60.5253 149H56.5044C56.3953 149 56.2875 149.025 56.1891 149.072C56.0908 149.119 56.0043 149.188 55.9361 149.273L55.2125 150.178C55.1571 150.249 55.1156 150.33 55.0901 150.416H49.0501C48.5896 150.416 48.1431 150.574 47.7856 150.865C47.428 151.155 47.1811 151.559 47.0862 152.01L46.0431 156.965C45.9815 157.257 45.986 157.559 46.0561 157.85C46.1263 158.14 46.2603 158.411 46.4485 158.643C46.6366 158.875 46.8742 159.062 47.1438 159.19C47.4134 159.318 47.7083 159.385 48.0069 159.385C54.6695 162.803 61.8199 162.887 69.4949 159.385C69.7935 159.385 70.0884 159.318 70.358 159.19C70.6276 159.062 70.8651 158.875 71.0533 158.643C71.2415 158.411 71.3755 158.14 71.4456 157.85C71.5158 157.559 71.5203 157.257 71.4587 156.965Z" fill="#3F3D56"/>
</g>
<defs>
<clipPath id="clip0_41_68">
<rect width="252" height="238" fill="white"/>
</clipPath>
</defs>
</svg>
