<svg width="192" height="192" viewBox="0 0 192 192" fill="none" xmlns="http://www.w3.org/2000/svg">
<g clip-path="url(#clip0_160_61)">
<path d="M96 192C149.019 192 192 149.019 192 96C192 42.9807 149.019 0 96 0C42.9807 0 0 42.9807 0 96C0 149.019 42.9807 192 96 192Z" fill="#FEC446"/>
<path d="M35.17 128V123.94H33.49V123.1H37.795V123.94H36.08V128H35.17ZM40.2162 128V123.1H43.9682V123.926H41.1122V127.174H43.9962V128H40.2162ZM40.6782 125.9V125.088H43.6112V125.9H40.6782ZM50.4351 128V123.1H51.3451V128H50.4351ZM46.7461 128V123.1H47.6561V128H46.7461ZM47.1241 125.998L47.1311 125.144H50.8761V125.998H47.1241ZM61.8354 128L61.2964 127.419L61.0164 127.16L59.7564 125.935C59.6164 125.8 59.4764 125.662 59.3364 125.522C59.2011 125.382 59.0774 125.242 58.9654 125.102C58.8534 124.957 58.7624 124.815 58.6924 124.675C58.6271 124.535 58.5944 124.395 58.5944 124.255C58.5944 124.045 58.6597 123.844 58.7904 123.653C58.9257 123.462 59.1147 123.305 59.3574 123.184C59.6047 123.063 59.8964 123.002 60.2324 123.002C60.5171 123.002 60.7761 123.044 61.0094 123.128C61.2427 123.212 61.4411 123.326 61.6044 123.471C61.7724 123.616 61.9007 123.781 61.9894 123.968L61.3454 124.465C61.2101 124.222 61.0467 124.05 60.8554 123.947C60.6641 123.84 60.4657 123.786 60.2604 123.786C60.1297 123.786 60.0131 123.802 59.9104 123.835C59.8077 123.868 59.7261 123.919 59.6654 123.989C59.6047 124.059 59.5744 124.145 59.5744 124.248C59.5744 124.332 59.6024 124.425 59.6584 124.528C59.7144 124.626 59.7844 124.726 59.8684 124.829C59.9524 124.932 60.0411 125.03 60.1344 125.123C60.2324 125.216 60.3187 125.298 60.3934 125.368L61.6884 126.6L61.9474 126.88L62.9974 128H61.8354ZM59.8544 128.091C59.4157 128.091 59.0401 128.019 58.7274 127.874C58.4194 127.729 58.1837 127.538 58.0204 127.3C57.8617 127.062 57.7824 126.805 57.7824 126.53C57.7824 126.199 57.8874 125.898 58.0974 125.627C58.3121 125.352 58.6364 125.132 59.0704 124.969L59.6234 125.536C59.3061 125.62 59.0774 125.737 58.9374 125.886C58.8021 126.035 58.7344 126.213 58.7344 126.418C58.7344 126.577 58.7764 126.721 58.8604 126.852C58.9444 126.983 59.0751 127.088 59.2524 127.167C59.4297 127.242 59.6584 127.279 59.9384 127.279C60.1251 127.279 60.3141 127.249 60.5054 127.188C60.6967 127.123 60.8717 127.025 61.0304 126.894C61.1937 126.759 61.3267 126.588 61.4294 126.383C61.5367 126.178 61.5951 125.935 61.6044 125.655H62.4724C62.4584 125.972 62.3954 126.262 62.2834 126.523C62.1761 126.78 62.0361 127.006 61.8634 127.202C61.6954 127.398 61.5017 127.561 61.2824 127.692C61.0631 127.823 60.8321 127.923 60.5894 127.993C60.3514 128.058 60.1064 128.091 59.8544 128.091ZM69.2088 128V123.1H70.0698L72.1068 125.928L71.6518 125.921L73.6958 123.1H74.5428V128H73.6398V126.117C73.6398 125.716 73.6491 125.347 73.6678 125.011C73.6864 124.67 73.7238 124.327 73.7798 123.982L73.8778 124.304L72.0928 126.67H71.6308L69.8738 124.304L69.9718 123.982C70.0278 124.318 70.0651 124.654 70.0838 124.99C70.1024 125.326 70.1118 125.702 70.1118 126.117V128H69.2088ZM77.4474 128V127.167H78.5254V123.933H77.4474V123.1H80.5134V123.933H79.4354V127.167H80.5134V128H77.4474ZM83.4171 128V123.1H84.2781L87.6661 126.929L87.5541 126.957C87.5308 126.812 87.5121 126.665 87.4981 126.516C87.4841 126.367 87.4701 126.213 87.4561 126.054C87.4468 125.895 87.4375 125.734 87.4281 125.571C87.4235 125.408 87.4188 125.244 87.4141 125.081C87.4141 124.913 87.4141 124.743 87.4141 124.57V123.1H88.3171V128H87.4421L84.0401 124.227L84.1801 124.178C84.1941 124.341 84.2081 124.493 84.2221 124.633C84.2361 124.768 84.2478 124.901 84.2571 125.032C84.2711 125.163 84.2828 125.289 84.2921 125.41C84.3015 125.527 84.3085 125.643 84.3131 125.76C84.3178 125.877 84.3201 125.991 84.3201 126.103V128H83.4171ZM93.4651 128.042C93.0171 128.042 92.6204 127.949 92.2751 127.762C91.9297 127.571 91.6591 127.309 91.4631 126.978C91.2717 126.647 91.1761 126.273 91.1761 125.858V123.093H92.0931V125.816C92.0931 126.082 92.1537 126.32 92.2751 126.53C92.3964 126.735 92.5621 126.899 92.7721 127.02C92.9821 127.137 93.2131 127.195 93.4651 127.195C93.7357 127.195 93.9784 127.137 94.1931 127.02C94.4077 126.899 94.5757 126.735 94.6971 126.53C94.8184 126.32 94.8791 126.082 94.8791 125.816V123.093H95.7611V125.858C95.7611 126.273 95.6631 126.647 95.4671 126.978C95.2757 127.309 95.0074 127.571 94.6621 127.762C94.3214 127.949 93.9224 128.042 93.4651 128.042ZM98.6167 128V123.1H99.4777L101.515 125.928L101.06 125.921L103.104 123.1H103.951V128H103.048V126.117C103.048 125.716 103.057 125.347 103.076 125.011C103.094 124.67 103.132 124.327 103.188 123.982L103.286 124.304L101.501 126.67H101.039L99.2817 124.304L99.3797 123.982C99.4357 124.318 99.473 124.654 99.4917 124.99C99.5104 125.326 99.5197 125.702 99.5197 126.117V128H98.6167ZM106.26 128L108.444 123.1H109.361L111.538 128H110.579L109.235 124.976C109.198 124.901 109.158 124.813 109.116 124.71C109.079 124.607 109.039 124.502 108.997 124.395C108.955 124.283 108.916 124.176 108.878 124.073C108.841 123.966 108.808 123.87 108.78 123.786L108.99 123.779C108.958 123.877 108.923 123.98 108.885 124.087C108.848 124.19 108.808 124.295 108.766 124.402C108.724 124.509 108.682 124.612 108.64 124.71C108.598 124.808 108.559 124.904 108.521 124.997L107.184 128H106.26ZM107.24 126.922L107.562 126.131H110.18L110.404 126.922H107.24ZM113.85 128V123.1H114.711L118.099 126.929L117.987 126.957C117.964 126.812 117.945 126.665 117.931 126.516C117.917 126.367 117.903 126.213 117.889 126.054C117.88 125.895 117.871 125.734 117.861 125.571C117.857 125.408 117.852 125.244 117.847 125.081C117.847 124.913 117.847 124.743 117.847 124.57V123.1H118.75V128H117.875L114.473 124.227L114.613 124.178C114.627 124.341 114.641 124.493 114.655 124.633C114.669 124.768 114.681 124.901 114.69 125.032C114.704 125.163 114.716 125.289 114.725 125.41C114.735 125.527 114.742 125.643 114.746 125.76C114.751 125.877 114.753 125.991 114.753 126.103V128H113.85ZM127.358 128.07C127.026 128.07 126.721 128.035 126.441 127.965C126.165 127.89 125.913 127.785 125.685 127.65C125.461 127.515 125.258 127.344 125.076 127.139L125.615 126.425C125.899 126.738 126.184 126.959 126.469 127.09C126.758 127.216 127.068 127.279 127.4 127.279C127.591 127.279 127.771 127.256 127.939 127.209C128.111 127.158 128.251 127.085 128.359 126.992C128.471 126.894 128.527 126.775 128.527 126.635C128.527 126.542 128.499 126.462 128.443 126.397C128.391 126.327 128.319 126.269 128.226 126.222C128.137 126.171 128.034 126.129 127.918 126.096C127.801 126.063 127.68 126.035 127.554 126.012C127.428 125.989 127.302 125.968 127.176 125.949C126.882 125.902 126.62 125.842 126.392 125.767C126.163 125.688 125.969 125.587 125.811 125.466C125.652 125.345 125.531 125.202 125.447 125.039C125.367 124.876 125.328 124.687 125.328 124.472C125.328 124.248 125.379 124.047 125.482 123.87C125.584 123.688 125.729 123.534 125.916 123.408C126.102 123.282 126.317 123.186 126.56 123.121C126.807 123.051 127.075 123.016 127.365 123.016C127.673 123.016 127.95 123.049 128.198 123.114C128.45 123.179 128.671 123.275 128.863 123.401C129.054 123.522 129.215 123.669 129.346 123.842L128.779 124.465C128.662 124.325 128.527 124.206 128.373 124.108C128.223 124.01 128.062 123.938 127.89 123.891C127.717 123.84 127.535 123.814 127.344 123.814C127.138 123.814 126.956 123.837 126.798 123.884C126.639 123.931 126.513 123.998 126.42 124.087C126.326 124.176 126.28 124.283 126.28 124.409C126.28 124.512 126.31 124.603 126.371 124.682C126.431 124.757 126.515 124.822 126.623 124.878C126.735 124.929 126.865 124.974 127.015 125.011C127.164 125.044 127.327 125.074 127.505 125.102C127.775 125.144 128.03 125.198 128.268 125.263C128.506 125.328 128.716 125.415 128.898 125.522C129.08 125.625 129.22 125.755 129.318 125.914C129.42 126.068 129.472 126.262 129.472 126.495C129.472 126.817 129.383 127.097 129.206 127.335C129.028 127.568 128.781 127.75 128.464 127.881C128.151 128.007 127.782 128.07 127.358 128.07ZM132.039 128V123.1H135.791V123.926H132.935V127.174H135.819V128H132.039ZM132.501 125.9V125.088H135.434V125.9H132.501ZM140.984 128.07C140.601 128.07 140.242 128.012 139.906 127.895C139.57 127.778 139.276 127.613 139.024 127.398C138.772 127.179 138.574 126.913 138.429 126.6C138.289 126.287 138.219 125.935 138.219 125.543C138.219 125.188 138.291 124.859 138.436 124.556C138.581 124.248 138.781 123.982 139.038 123.758C139.295 123.529 139.596 123.352 139.941 123.226C140.291 123.1 140.667 123.037 141.068 123.037C141.381 123.037 141.675 123.074 141.95 123.149C142.23 123.224 142.475 123.324 142.685 123.45C142.9 123.576 143.072 123.714 143.203 123.863L142.629 124.486C142.484 124.365 142.33 124.26 142.167 124.171C142.004 124.082 141.829 124.012 141.642 123.961C141.46 123.91 141.266 123.884 141.061 123.884C140.795 123.884 140.545 123.926 140.312 124.01C140.083 124.094 139.883 124.211 139.71 124.36C139.542 124.509 139.409 124.684 139.311 124.885C139.218 125.086 139.171 125.305 139.171 125.543C139.171 125.814 139.22 126.054 139.318 126.264C139.421 126.469 139.558 126.644 139.731 126.789C139.908 126.934 140.111 127.043 140.34 127.118C140.569 127.188 140.807 127.223 141.054 127.223C141.283 127.223 141.495 127.197 141.691 127.146C141.892 127.095 142.064 127.022 142.209 126.929C142.358 126.836 142.475 126.728 142.559 126.607C142.643 126.481 142.683 126.343 142.678 126.194L142.671 126.068L142.804 126.243H141.019V125.445H143.588C143.597 125.506 143.604 125.566 143.609 125.627C143.614 125.683 143.616 125.734 143.616 125.781C143.621 125.828 143.623 125.865 143.623 125.893C143.623 126.238 143.558 126.546 143.427 126.817C143.301 127.088 143.119 127.316 142.881 127.503C142.643 127.685 142.363 127.825 142.041 127.923C141.724 128.021 141.371 128.07 140.984 128.07ZM145.474 128L147.658 123.1H148.575L150.752 128H149.793L148.449 124.976C148.412 124.901 148.372 124.813 148.33 124.71C148.293 124.607 148.253 124.502 148.211 124.395C148.169 124.283 148.13 124.176 148.092 124.073C148.055 123.966 148.022 123.87 147.994 123.786L148.204 123.779C148.172 123.877 148.137 123.98 148.099 124.087C148.062 124.19 148.022 124.295 147.98 124.402C147.938 124.509 147.896 124.612 147.854 124.71C147.812 124.808 147.773 124.904 147.735 124.997L146.398 128H145.474ZM146.454 126.922L146.776 126.131H149.394L149.618 126.922H146.454ZM153.064 128V123.1H155.598C155.911 123.1 156.191 123.168 156.438 123.303C156.686 123.434 156.882 123.616 157.026 123.849C157.176 124.082 157.25 124.348 157.25 124.647C157.25 124.936 157.173 125.202 157.019 125.445C156.865 125.683 156.66 125.872 156.403 126.012C156.147 126.152 155.862 126.222 155.549 126.222H153.953V128H153.064ZM156.403 128L154.919 125.788L155.871 125.613L157.495 128.007L156.403 128ZM153.953 125.431H155.507C155.657 125.431 155.792 125.398 155.913 125.333C156.035 125.263 156.13 125.17 156.2 125.053C156.275 124.936 156.312 124.806 156.312 124.661C156.312 124.516 156.273 124.39 156.193 124.283C156.114 124.171 156.007 124.082 155.871 124.017C155.741 123.952 155.591 123.919 155.423 123.919H153.953V125.431Z" fill="black"/>
<path d="M105 78.9614H112V111.961H105V78.9614Z" fill="black"/>
<path d="M118.5 78.9614H125L118.194 99.0202L112.108 98.0985L118.5 78.9614Z" fill="black"/>
<path d="M114 96.9495L119.5 94.4614L126 111.961H119L114 96.9495Z" fill="black"/>
<path d="M119 92.9614H112V98.9614H119V92.9614Z" fill="black"/>
<g clip-path="url(#clip1_160_61)">
<path d="M91.3273 70.3148C91.3091 70.2359 91.2908 70.1571 91.2848 70.0627C91.3129 69.992 91.3349 69.9377 91.3442 69.8817C91.523 68.8026 91.6639 67.7168 91.8883 66.6459C92.1108 65.5843 92.4727 64.5544 92.8951 63.5448C93.2772 62.6317 93.7254 61.7501 94.2502 60.9048C94.4766 60.5401 94.7179 60.1816 94.9807 59.8403C95.4134 59.2785 95.8476 58.7152 96.3198 58.1845C97.2088 57.1853 98.1981 56.2817 99.2991 55.5024C100.118 54.9228 100.949 54.3568 101.802 53.8252C102.574 53.3436 103.375 52.9031 104.177 52.4689C105.234 51.8966 106.31 51.3579 107.368 50.7867C108.467 50.1932 109.565 49.5957 110.644 48.9678C111.829 48.2781 112.93 47.4754 113.898 46.5129C114.095 46.3173 114.274 46.1052 114.461 45.9007C114.397 45.8877 114.362 45.9032 114.335 45.9271C114.149 46.092 113.968 46.2622 113.778 46.424C112.267 47.7163 110.53 48.6685 108.76 49.5692C107.833 50.0408 106.893 50.4873 105.959 50.9456C105.013 51.4098 104.054 51.8506 103.125 52.3454C102.022 52.9328 100.935 53.5497 99.8604 54.1851C98.5219 54.9767 97.2775 55.8966 96.1733 56.977C95.5507 57.5861 94.9614 58.232 94.4085 58.9005C94.0159 59.3752 93.6915 59.9055 93.3696 60.4295C93.1051 60.8599 92.8829 61.3147 92.6538 61.7642C92.521 62.025 92.4116 62.2967 92.2686 62.6148C92.0961 62.0788 91.9136 61.6022 91.7926 61.1105C91.6676 60.602 91.5946 60.0801 91.5129 59.5618C91.3892 58.7776 91.4142 57.9905 91.5136 57.2005C91.6674 55.9781 92.0827 54.836 92.7035 53.7612C93.1493 52.9894 93.709 52.2901 94.3353 51.6453C95.2755 50.6774 96.3497 49.8649 97.5107 49.1605C98.7952 48.3813 100.143 47.724 101.559 47.2052C102.291 46.937 103.022 46.6628 103.763 46.4192C104.417 46.2043 105.082 46.0246 105.745 45.8358C106.343 45.6654 106.944 45.5065 107.542 45.3375C108.264 45.1334 108.988 44.9316 109.706 44.7142C110.278 44.541 110.851 44.3624 111.412 44.1563C112.079 43.9113 112.749 43.6644 113.392 43.3655C115.02 42.6089 116.503 41.6401 117.791 40.4041C117.9 40.2997 117.986 40.1734 118.083 40.0572C118.122 40.0481 118.161 40.0391 118.203 40.0293C118.242 40.1973 118.281 40.3654 118.307 40.5521C118.284 40.5871 118.265 40.6032 118.265 40.6198C118.23 41.3029 118.232 41.9892 118.156 42.6684C118.046 43.6346 117.81 44.5836 117.471 45.5027C117.139 46.4056 116.801 47.3108 116.388 48.1821C115.917 49.1778 115.373 50.1437 114.835 51.1095C114.581 51.5644 114.281 51.9973 113.979 52.4255C113.387 53.2647 112.805 54.1116 112.172 54.9214C111.609 55.6414 111.001 56.3308 110.38 57.0064C109.37 58.1062 108.235 59.0799 107.029 59.9756C106.161 60.6196 105.25 61.1977 104.302 61.7241C103.011 62.4403 101.655 63.0029 100.236 63.4101C99.3024 63.678 98.3463 63.8667 97.3767 63.9495C96.3221 64.0395 95.2684 64.0366 94.22 63.9026C94.1718 63.8964 94.0988 63.922 94.0677 63.9575C93.9701 64.0683 93.8698 64.1827 93.8012 64.3106C93.4995 64.8733 93.1674 65.4259 92.9239 66.0112C92.5917 66.8096 92.3249 67.6327 92.0407 68.4486C91.9406 68.7358 91.8718 69.0326 91.7932 69.3092C92.2302 68.8957 92.6435 68.4637 93.1003 68.0804C94.1675 67.1849 95.3538 66.4647 96.6228 65.8648C97.4525 65.4725 98.3034 65.1345 99.1855 64.8914C99.8291 64.714 100.495 64.5942 101.158 64.515C101.916 64.4244 102.686 64.3493 103.445 64.3699C105.207 64.4176 106.965 64.5327 108.726 64.6087C109.407 64.6381 110.09 64.6557 110.771 64.6413C111.311 64.6299 111.854 64.586 112.39 64.5105C112.826 64.4489 113.254 64.3191 113.685 64.2195C113.579 64.2419 113.474 64.265 113.369 64.2908C112.77 64.4378 112.158 64.4933 111.549 64.4709C110.429 64.4298 109.308 64.378 108.192 64.2845C106.282 64.1244 104.379 63.8747 102.454 63.9038C101.711 63.915 100.968 63.9819 100.225 64.0316C99.9391 64.0508 99.6545 64.0927 99.3723 64.124C99.6304 64.0447 99.8908 63.9655 100.151 63.8846C100.645 63.7309 101.146 63.5971 101.63 63.4168C102.264 63.1805 102.898 62.9355 103.507 62.6437C104.649 62.0961 105.734 61.4502 106.765 60.7189C106.853 60.656 106.991 60.6146 107.097 60.6268C107.526 60.6761 107.962 60.7159 108.376 60.8222C109.367 61.0765 110.353 61.3534 111.332 61.6455C112.375 61.9566 113.394 62.3459 114.48 62.5181C115.265 62.6425 116.056 62.6832 116.841 62.5071C117.289 62.4067 117.726 62.254 118.17 62.1239C118.166 62.1381 118.164 62.1714 118.148 62.1959C117.812 62.6964 117.5 63.2138 117.132 63.692C116.337 64.7276 115.326 65.5532 114.222 66.2594C113.423 66.7703 112.582 67.2226 111.735 67.6558C111.159 67.9503 110.545 68.1746 109.941 68.4148C109.589 68.5553 109.223 68.6634 108.864 68.7916C108.829 68.8044 108.807 68.8556 108.779 68.8891C107.626 69.1553 106.473 69.4215 105.299 69.6751C105.249 69.6545 105.217 69.6367 105.188 69.6398C104.844 69.676 104.501 69.715 104.157 69.7539C103.185 69.8639 102.213 69.8516 101.245 69.7675C100.021 69.6611 98.8348 69.3975 97.706 68.928C96.9387 68.6088 96.2154 68.2196 95.573 67.7051C95.3597 67.5342 95.1629 67.4963 94.918 67.6449C94.7575 67.7423 94.575 67.8048 94.4102 67.8962C93.7048 68.2875 93.0324 68.726 92.4372 69.2658C92.06 69.608 91.6968 69.9646 91.3273 70.3148ZM114.458 45.8353C114.488 45.824 114.517 45.8128 114.547 45.8015C114.543 45.7912 114.539 45.781 114.535 45.7707C114.51 45.782 114.485 45.7934 114.458 45.8353ZM114.565 45.7061C114.578 45.7049 114.592 45.7038 114.605 45.7026C114.594 45.6961 114.582 45.6895 114.565 45.7061Z" fill="#5A953B"/>
</g>
<path d="M30 78.9614H12V84.9614H30V78.9614Z" fill="black"/>
<path d="M17.7 84.961V111.961H24.7V84.961H17.7Z" fill="black"/>
<path d="M44.5 78.9614H37V111.961H44.5V78.9614Z" fill="black"/>
<path d="M52.5 78.9614H44.5V84.9614H52.5V78.9614Z" fill="black"/>
<path d="M52.5 91.9614H44.5V97.9614H52.5V91.9614Z" fill="black"/>
<path d="M52.5 105.961H44.5V111.961H52.5V105.961Z" fill="black"/>
<path d="M88 78.9614H95.5V111.961H88V78.9614Z" fill="black"/>
<path d="M67 78.9614H60V111.961H67V78.9614Z" fill="black"/>
<path d="M73 78.9614C76.4794 78.9614 79.3 81.782 79.3 85.2614V105.661C79.3 109.141 76.4794 111.961 73 111.961V78.9614Z" fill="black"/>
<path d="M67 78.9614H72.3C74.8957 78.9614 77 81.0656 77 83.6614H67V78.9614Z" fill="black"/>
<path d="M67 106.961H78C78 109.723 75.7614 111.961 73 111.961H67V106.961Z" fill="black"/>
<path d="M132.5 82.9614H139.5V111.961H132.5V82.9614Z" fill="black"/>
<path d="M145 82.9614C145 82.9614 151.5 82.9614 152 82.9614C152.5 82.9614 152 111.961 152 111.961H145V82.9614Z" fill="black"/>
<path d="M139.5 95.4614H145.3V100.961H139.5V95.4614Z" fill="black"/>
<path d="M133.644 81.1301C134.496 79.7682 135.949 78.898 137.552 78.7912L138.75 78.7113L142.317 78.7114L146.312 78.8504C148.305 78.9197 150.134 79.9752 151.191 81.6667L152 82.9613H147H142.317H132.5L133.644 81.1301Z" fill="black"/>
<path d="M161 83.9614C161 83.9614 167.515 83.9614 168 83.9614C168.485 83.9614 168 111.961 168 111.961H161V83.9614Z" fill="black"/>
<path d="M173 78.9614H161V83.9614H173V78.9614Z" fill="black"/>
<path d="M173 93.9614H161V98.9614H173V93.9614Z" fill="black"/>
<path d="M173 78.9614C176.59 78.9614 179.5 81.8715 179.5 85.4614V92.4614C179.5 96.0512 176.59 98.9614 173 98.9614V78.9614Z" fill="black"/>
</g>
<defs>
<clipPath id="clip0_160_61">
<rect width="192" height="192" fill="white"/>
</clipPath>
<clipPath id="clip1_160_61">
<rect width="33" height="26" fill="white" transform="translate(86 47.4234) rotate(-13)"/>
</clipPath>
</defs>
</svg>
