<svg width="80" height="80" viewBox="0 0 80 80" fill="none" xmlns="http://www.w3.org/2000/svg">
<g clip-path="url(#clip0_93_8)">
<g clip-path="url(#clip1_93_8)">
<path d="M40 80C62.0914 80 80 62.0914 80 40C80 17.9086 62.0914 0 40 0C17.9086 0 0 17.9086 0 40C0 62.0914 17.9086 80 40 80Z" fill="#45B39C"/>
<path d="M44.9872 33.2953C44.7208 33.384 35.7492 34.45 35.1272 34.2281C34.5053 34.0059 21.8033 32.629 21.6698 32.629C21.5366 32.629 15.4519 33.2953 15.4519 33.2953L15.4308 33.1626C15.4258 33.2817 15.4173 33.4003 15.4173 33.5204C15.4173 39.9998 23.267 45.2525 32.95 45.2525C42.6323 45.2525 50.4823 39.9996 50.4823 33.5204C50.4823 32.655 50.338 31.8128 50.0725 31.0007C47.9325 31.9767 45.1502 33.241 44.9872 33.2953Z" fill="#E0E0E0"/>
<path d="M28.7484 42.5944H32.9502V45.2525H28.7484V42.5944Z" fill="#E0E0E0"/>
<path d="M28.965 45.265C36.0141 45.265 41.7286 41.9441 41.7286 37.8476C41.7286 33.7512 36.0141 30.4303 28.965 30.4303C21.9159 30.4303 16.2014 33.7512 16.2014 37.8476C16.2014 41.9441 21.9159 45.265 28.965 45.265Z" fill="white"/>
<path d="M52.323 28.1414H50.4708V29.1356L22.9745 29.1362C22.1575 29.1362 21.1734 29.4154 20.5508 29.8426C19.343 30.6717 17.3277 32.0534 15.9172 33.0204H14.2352L14.2373 37.3371C14.2622 37.5928 14.6681 37.7407 15.4183 37.7407H43.5833C44.4008 37.7407 45.3844 37.4612 46.007 37.0339C47.9044 35.7322 49.8021 34.4311 51.7002 33.1304C52.1177 32.8435 52.3175 32.5982 52.3203 32.4076L52.323 28.1414Z" fill="#F28C40"/>
<path d="M51.1398 27.7113H22.9745C22.1575 27.7113 21.1734 27.9911 20.5508 28.4182C18.9852 29.4924 16.0614 31.4977 14.8584 32.3222C13.8403 33.0201 14.098 33.4769 15.418 33.4769L43.583 33.4768C44.4005 33.4768 45.3841 33.1971 46.0067 32.7704C47.5728 31.696 50.4961 29.6901 51.6998 28.8661C52.7173 28.1683 52.4597 27.7113 51.1398 27.7113Z" fill="#F2730A"/>
<path d="M18.6425 33.4769L27.0705 27.7113H24.7456L16.3172 33.4769H18.6425ZM26.6233 33.4769L35.0513 27.7113H32.7264L24.2984 33.4769H26.6233ZM34.6042 33.4768L43.0316 27.7113H40.7073L32.2788 33.4768H34.6042ZM42.5845 33.4768L51.0128 27.7113H48.6883L40.2597 33.4768H42.5845Z" fill="#F2D7B3"/>
<path d="M16.3184 33.4862H18.6822V37.7687H16.3184V33.4862ZM24.3145 33.4862H26.6775V37.7687H24.3145V33.4862ZM32.3102 33.4862H34.6731V37.7687H32.3102V33.4862ZM40.3055 33.4862H42.6691V37.7687H40.3055V33.4862Z" fill="#EFAF84"/>
<path d="M61.5872 44.6207C61.3208 44.7096 52.3492 45.7755 51.7272 45.5535C51.1053 45.3316 38.4033 43.9547 38.2698 43.9547C38.1364 43.9547 32.0519 44.6207 32.0519 44.6207L32.0308 44.488C32.0256 44.6072 32.0173 44.7257 32.0173 44.8458C32.0173 51.3252 39.867 56.5779 49.55 56.5779C59.2323 56.5779 67.0823 51.3252 67.0823 44.8458C67.0823 43.9805 66.938 43.1382 66.6728 42.3263C64.5325 43.3022 61.7502 44.5668 61.5872 44.6207Z" fill="#E0E0E0"/>
<path d="M45.3483 53.9198H49.5503V56.5779H45.3483V53.9198Z" fill="#E0E0E0"/>
<path d="M32.8016 49.1732C32.8016 45.0768 38.5156 41.7557 45.565 41.7557C52.6145 41.7557 58.3287 45.0768 58.3287 49.1732C58.3287 53.2696 52.6147 56.5904 45.565 56.5904C38.5156 56.5904 32.8016 53.2696 32.8016 49.1732Z" fill="white"/>
<path d="M68.9227 39.4669H67.0708V40.4613L39.5744 40.4618C38.7573 40.4618 37.7733 40.741 37.1506 41.1682C35.9428 41.9975 33.9273 43.379 32.5169 44.346H30.8347L30.8369 48.6629C30.8619 48.9183 31.2678 49.0665 32.0177 49.0665H60.183C61.0005 49.0665 61.9844 48.7866 62.6067 48.3594C64.1728 47.2852 67.0964 45.2802 68.2997 44.4558C68.7172 44.1691 68.917 43.9235 68.9202 43.7332L68.9227 39.4669Z" fill="#F28C40"/>
<path d="M67.7398 39.0369H39.5745C38.7575 39.0369 37.7734 39.3166 37.1508 39.7436C35.5852 40.8178 32.6614 42.8231 31.4583 43.6478C30.4405 44.3455 30.6978 44.8023 32.0177 44.8023L60.183 44.802C61.0005 44.802 61.9844 44.5226 62.6067 44.0956C64.1728 43.0214 67.0964 41.0156 68.2997 40.1916C69.3173 39.4939 69.0597 39.0369 67.7398 39.0369Z" fill="#F2730A"/>
<path d="M35.2423 44.8023L43.6703 39.0369H41.3455L32.9169 44.8023H35.2423ZM43.2233 44.8023L51.6512 39.0369H49.3261L40.8983 44.8023H43.2233ZM51.2042 44.802L59.6317 39.0369H57.3075L48.8789 44.802H51.2042ZM59.1845 44.802L67.6128 39.0369H65.2883L56.8597 44.802H59.1845Z" fill="#F2D7B3"/>
<path d="M32.9184 44.8119H35.282V49.0944H32.9184V44.8119ZM40.9144 44.8119H43.2777V49.0944H40.9144V44.8119ZM48.9099 44.8119H51.2731V49.0944H48.9099V44.8119ZM56.9055 44.8119H59.2691V49.0944H56.9055V44.8119Z" fill="#EFAF84"/>
<path d="M29.0103 51.5757C29.0103 53.3568 24.9719 54.8012 19.9894 54.8012C15.0086 54.8012 10.9695 53.357 10.9695 51.5757C10.9695 49.7943 15.0086 44.2223 19.9894 44.2223C24.9719 44.2223 29.0103 49.7943 29.0103 51.5757Z" fill="black"/>
<path d="M10.9695 39.8344H29.0103V51.5754H10.9695V39.8344Z" fill="black"/>
<path d="M29.0103 39.8343C29.0103 41.6153 24.9719 43.0593 19.9894 43.0593C15.0086 43.0593 10.9695 41.6153 10.9695 39.8343C10.9695 38.0528 15.0086 36.6084 19.9894 36.6084C24.9719 36.6084 29.0103 38.0528 29.0103 39.8343Z" fill="black"/>
<path d="M28.6594 39.8344C28.6594 41.5458 24.7787 42.9339 19.9894 42.9339C15.2016 42.9339 11.32 41.5456 11.32 39.8344C11.32 38.1219 15.2017 36.7339 19.9894 36.7339C24.7787 36.7339 28.6594 38.1219 28.6594 39.8344Z" fill="white"/>
<path d="M19.5698 40.4278H15.4863L16.5648 38.4792H20.648L19.5698 40.4278Z" fill="#BD3E25"/>
<path d="M23.1033 41.3383H19.39L20.3708 39.5659H24.0845L23.1033 41.3383Z" fill="#4B680C"/>
<path d="M18.9297 41.7222H16.4522L17.1064 40.5402H19.5839L18.9297 41.7222Z" fill="#DBB538"/>
</g>
</g>
<defs>
<clipPath id="clip0_93_8">
<rect width="80" height="80" fill="white"/>
</clipPath>
<clipPath id="clip1_93_8">
<rect width="80" height="80" fill="white"/>
</clipPath>
</defs>
</svg>
