<svg width="80" height="80" viewBox="0 0 80 80" fill="none" xmlns="http://www.w3.org/2000/svg">
<g clip-path="url(#clip0_95_95)">
<g clip-path="url(#clip1_95_95)">
<path d="M40 79.6875C61.9188 79.6875 79.6875 61.9188 79.6875 40C79.6875 18.0812 61.9188 0.3125 40 0.3125C18.0812 0.3125 0.3125 18.0812 0.3125 40C0.3125 61.9188 18.0812 79.6875 40 79.6875Z" fill="#FEC446"/>
<path d="M61.25 24.9688C60.0938 21.7812 57 19.6562 53.5938 19.6562H46.875C45.8125 19.6562 44.9688 20.5312 44.9688 21.5625C44.9688 21.75 45 21.9687 45.0313 22.25C48.625 22.0625 55.0313 21.8438 56.5313 22.75C58.5938 24 59.9688 27.4375 61.4375 34.4688C62.5625 39.8125 61.9688 45.25 61.625 47.5313C61.9375 47.8438 62.3438 48.0312 62.8125 48.0625H62.9375C63.9375 48.0625 64.7813 47.2813 64.8438 46.2813C65.4063 38.2813 63.2188 30.2812 61.25 24.9688Z" fill="#E65336"/>
<path d="M28.3438 23.0625H20.0625L21.5625 42.3125L28.3438 23.0625Z" fill="#2C424F"/>
<path d="M46.875 17.6562H30.9375C24.9688 24.1875 20.8438 37.875 20.8438 53.7188C20.8438 55.9375 20.9375 58.0938 21.0938 60.1875H56.75C56.9063 58.0625 57 55.9062 57 53.7188C56.9688 37.9062 52.8438 24.2188 46.875 17.6562Z" fill="#BBC2C6"/>
<path d="M38.9062 13.5625C36.0312 13.5625 33.3438 15.0312 30.9375 17.6562H46.875C44.4688 15.0312 41.75 13.5625 38.9062 13.5625Z" fill="#BF4028"/>
<path opacity="0.34" d="M36.5938 18.5938C38.4062 16.625 40.375 15.3125 42.4375 14.8125C41.8125 14.6563 41.1563 14.5625 40.5 14.5625C37.6875 14.5625 35.0625 16 32.7188 18.5938C26.8437 25 22.8438 38.375 22.8438 53.875C22.8438 56.0312 22.9375 58.1563 23.0625 60.2188H26.9688C26.8125 58.1563 26.75 56.0312 26.75 53.875C26.7188 38.375 30.75 25 36.5938 18.5938Z" fill="white"/>
<path d="M21.0625 60.1875H56.9688V63.625H21.0625V60.1875Z" fill="#505153"/>
<path d="M24.8438 63.625H27.3125V65.1875H24.8438V63.625ZM50.75 63.625H53.2188V65.1875H50.75V63.625Z" fill="#33363B"/>
</g>
</g>
<defs>
<clipPath id="clip0_95_95">
<rect width="80" height="80" fill="white"/>
</clipPath>
<clipPath id="clip1_95_95">
<rect width="80" height="80" fill="white"/>
</clipPath>
</defs>
</svg>
