<svg width="80" height="80" viewBox="0 0 80 80" fill="none" xmlns="http://www.w3.org/2000/svg">
<g clip-path="url(#clip0_94_49)">
<g clip-path="url(#clip1_94_49)">
<path d="M80 40C80 62.0917 62.0917 80 40.0003 80C17.9083 80 0 62.0917 0 40C0 17.9086 17.9083 0 40.0003 0C62.0917 0 80 17.9086 80 40Z" fill="#FFB6B6"/>
<path d="M53.5741 15.7438C53.5741 15.3987 53.4371 15.0678 53.1932 14.8238C52.9492 14.5797 52.6183 14.4426 52.2733 14.4425H27.8439C27.1252 14.4425 26.5427 15.0253 26.5427 15.7438V20.3392C26.5427 20.6843 26.6798 21.0153 26.9238 21.2593C27.1679 21.5033 27.4988 21.6404 27.8439 21.6405H52.2733C52.6183 21.6404 52.9492 21.5033 53.1932 21.2592C53.4371 21.0152 53.5741 20.6843 53.5741 20.3392V15.7438ZM29.8316 28.0433H56.8283V65.5578H29.8316V28.0433Z" fill="white"/>
<path d="M29.8316 29.1279H56.8283V31.9468H29.8316V29.1279ZM53.5395 19.6921H26.5427L29.8316 28.0432H56.8283L53.5395 19.6921Z" fill="#E45136"/>
<path d="M26.5427 19.6921L23.1638 21.7009V59.215L29.8316 65.5576V28.0432L26.5427 19.6921Z" fill="#CECECE"/>
<path d="M31.8422 24.6566C32.5071 24.6566 33.0461 24.1176 33.0461 23.4527C33.0461 22.7878 32.5071 22.2488 31.8422 22.2488C31.1773 22.2488 30.6383 22.7878 30.6383 23.4527C30.6383 24.1176 31.1773 24.6566 31.8422 24.6566Z" fill="white"/>
<path d="M42.9922 46.9008C42.138 47.8194 41.3606 48.2788 40.6594 48.2788C40.2324 48.2788 39.9072 48.073 39.6844 47.6611C39.4614 47.2494 39.3497 46.699 39.3497 46.009C39.3497 45.4754 39.4594 44.7418 39.6786 43.8077C39.8977 42.8736 40.1805 42.0886 40.5277 41.4519L40.8594 40.8574C40.4058 41.3299 40.0341 41.8474 39.7441 42.4097C39.4547 42.9719 39.1088 43.7582 38.7067 44.7682C38.3042 45.7783 38.0005 46.4663 37.7942 46.8322C37.5886 47.1982 37.3914 47.4965 37.203 47.7272C37.0141 47.9579 36.8461 48.1074 36.6995 48.176C36.553 48.2446 36.2967 48.279 35.9305 48.279C35.7895 48.279 35.7188 48.2408 35.7188 48.1646C35.7188 48.1569 35.7442 48.0369 35.7945 47.8044C35.8452 47.5719 35.8964 47.1993 35.9489 46.6866C36.0014 46.1741 36.0392 45.303 36.062 44.0736C36.0847 42.8444 36.2639 41.7916 36.5992 40.9147C36.2406 41.3224 35.8739 42.2716 35.5005 43.7621L35.3572 44.3224C34.9641 45.8738 34.5142 46.921 34.0064 47.4641C33.4989 48.0074 33.0005 48.279 32.5125 48.279C32.2109 48.279 31.9455 48.1836 31.7166 47.993C31.4877 47.8022 31.3733 47.5832 31.3733 47.3355C31.3733 47.1449 31.5109 46.9315 31.7855 46.6951C32.0603 46.4586 32.2339 46.3404 32.3059 46.3404C32.3892 46.3404 32.4442 46.3691 32.4713 46.4263C32.4983 46.4835 32.5322 46.6407 32.5745 46.8982C32.6164 47.1554 32.6806 47.3232 32.7667 47.4013C32.8524 47.4794 32.9606 47.5185 33.0905 47.5185C33.385 47.5185 33.7099 47.224 34.0652 46.6351C34.4205 46.046 34.7453 45.1361 35.0397 43.9051L35.2063 43.213C35.3397 42.6491 35.4714 42.1993 35.6017 41.8638C35.7314 41.5283 35.9036 41.1929 36.1177 40.8576C36.427 40.3772 36.6174 40.1208 36.6877 40.0885C36.7584 40.0561 36.8909 40.0294 37.0855 40.0083C37.279 39.9874 37.4736 39.9769 37.6683 39.9769C37.7445 39.9769 37.7827 40.0207 37.7827 40.1085C37.7827 40.1504 37.7706 40.2361 37.7467 40.3657C37.6715 40.8979 37.6357 41.4349 37.6397 41.9724L37.6508 43.5047C37.6588 44.8386 37.5517 45.9155 37.3306 46.7351C37.5327 46.4913 37.8263 45.8622 38.2114 44.8483C38.768 43.4115 39.2747 42.3326 39.7324 41.6121C39.9497 41.2652 40.2114 40.9329 40.518 40.6144C40.8252 40.2961 41.0377 40.1257 41.1559 40.1027C41.5597 40.0266 41.9008 39.9883 42.1794 39.9883C42.2822 39.9883 42.3333 40.0171 42.3333 40.074C42.3333 40.1543 42.2709 40.3333 42.1453 40.6118C41.8491 41.2829 41.5728 42.1901 41.3158 43.3338C41.0591 44.4774 40.9297 45.3885 40.927 46.0661C40.927 46.8321 41.1614 47.2152 41.6305 47.2152C42.0114 47.2152 42.465 46.8911 42.9913 46.243V46.9008H42.9922Z" fill="#E45136"/>
<path d="M45.8008 46.9008C44.909 47.8385 44.2417 48.3072 43.7994 48.3072C43.5555 48.3072 43.3498 48.1825 43.182 47.933C43.0145 47.6835 42.9303 47.3697 42.9303 46.9922C42.9303 46.1805 43.2048 45.0558 43.7539 43.6191L45.2064 43.316H45.2748L44.703 45.1055C44.4667 45.8449 44.3486 46.373 44.3486 46.6894C44.3486 46.815 44.3764 46.9172 44.4312 46.9953C44.4865 47.0735 44.5564 47.1124 44.6401 47.1124C44.789 47.1124 44.9384 47.0582 45.0892 46.9496C45.2394 46.841 45.4765 46.6055 45.8009 46.2432V46.9008H45.8008ZM45.6864 41.0802C45.6864 41.995 45.3492 42.4524 44.6745 42.4524C44.3464 42.4524 44.0664 42.3535 43.8337 42.1552C44.0548 41.8199 44.2264 41.4424 44.3484 41.0233C44.6494 41.21 44.8917 41.3033 45.0745 41.3033C45.2801 41.3033 45.4845 41.2288 45.6864 41.0802Z" fill="#E45136"/>
<path d="M49.5841 46.9007C49.0659 47.3775 48.6114 47.7289 48.2205 47.9556C47.8297 48.1825 47.4569 48.2959 47.1027 48.2959C46.695 48.2959 46.3661 48.1378 46.1164 47.8214C45.867 47.505 45.7419 47.08 45.7419 46.5464C45.7419 45.7459 45.9153 44.7853 46.2625 43.6646C46.6091 42.5442 47.0306 41.5111 47.5261 40.5657L48.9781 40.0286C49.0242 40.0132 49.0581 40.0057 49.0813 40.0057C49.1917 40.0057 49.2824 40.0867 49.3525 40.2487C49.4233 40.4107 49.4588 40.629 49.4588 40.9032C49.4588 41.6809 49.2797 42.4339 48.9209 43.1617C48.5627 43.8896 48.0025 44.6675 47.24 45.4946C47.2097 45.891 47.1944 46.1634 47.1944 46.312C47.1944 46.6437 47.2555 46.9068 47.3772 47.1011C47.4991 47.2954 47.6614 47.3928 47.8633 47.3928C48.0689 47.3928 48.2881 47.3182 48.5206 47.1696C48.7533 47.021 49.1078 46.7123 49.5842 46.2432L49.5841 46.9007ZM47.3942 44.6653C47.8785 44.127 48.2759 43.5165 48.5722 42.8557C48.8733 42.1879 49.0241 41.6132 49.0241 41.1325C49.0241 40.9914 49.003 40.8775 48.9613 40.7917C48.9189 40.7057 48.8659 40.6628 48.8008 40.6628C48.6599 40.6628 48.4552 41.014 48.1861 41.7164C47.9177 42.4187 47.6534 43.4018 47.3942 44.6653Z" fill="#E45136"/>
<path d="M55.1941 46.8894C54.3286 47.8349 53.6102 48.3072 53.0386 48.3072C52.7639 48.3072 52.5333 48.211 52.3467 48.0185C52.1597 47.8263 52.0661 47.5888 52.0661 47.3066C52.0661 47.1733 52.0889 46.973 52.1348 46.7061C52.1805 46.4397 52.2033 46.2889 52.2033 46.2547C52.2033 46.0792 52.1042 45.9888 51.9061 45.983C51.708 45.9772 51.6089 45.9002 51.6089 45.7514C51.6089 45.6219 51.6369 45.5311 51.6916 45.4799C51.747 45.4283 51.8509 45.4025 52.0034 45.4025C52.4225 45.3911 52.7353 45.3047 52.9413 45.1425C53.1469 44.9806 53.2498 44.7889 53.2498 44.568C53.2498 44.4116 53.1934 44.283 53.0814 44.1819C52.9688 44.081 52.825 44.0302 52.6495 44.0302C52.5544 44.0302 52.4627 44.0416 52.3752 44.0647C52.2835 44.0876 52.1951 44.1221 52.1122 44.1675C52.0242 44.2169 51.9327 44.2802 51.8377 44.3561C51.7347 44.4475 51.6373 44.5449 51.5459 44.6478C51.4469 44.7583 51.3381 44.89 51.2198 45.0424C51.1589 45.1225 51.083 45.4978 50.9914 46.1688C50.9484 46.4876 50.9178 46.808 50.8997 47.1292C50.8842 47.4036 50.8825 47.7144 50.8941 48.0613L49.5961 48.2786C49.5469 47.9888 49.5217 47.6345 49.5217 47.215C49.5217 46.0716 49.6761 44.9792 49.9852 43.9388C50.2942 42.8983 50.7989 41.8289 51.5005 40.7313C52.0452 40.5103 52.5161 40.3375 52.9123 40.2139C53.3088 40.0899 53.5297 40.0281 53.5758 40.0281C53.6669 40.0281 53.7567 40.1194 53.8442 40.3025C53.9314 40.4825 53.9764 40.6799 53.9759 40.8799C53.9759 41.2192 53.8633 41.5899 53.6386 41.992C53.4136 42.3941 53.065 42.8792 52.5925 43.4469C52.9163 43.3519 53.1852 43.3041 53.3988 43.3041C53.753 43.3041 54.0425 43.3947 54.2677 43.5756C54.4925 43.7567 54.605 43.9864 54.605 44.2645C54.605 44.8974 54.035 45.3622 52.8952 45.6595C53.3412 45.7627 53.5641 46.0236 53.5641 46.4431L53.5297 46.9577C53.5297 47.19 53.6384 47.3063 53.8558 47.3063C54.0084 47.3063 54.1814 47.232 54.3759 47.0835C54.5705 46.9345 54.843 46.6506 55.1939 46.2313V46.8894H55.1941ZM51.4431 44.1336L51.8205 43.716C52.937 42.4581 53.4958 41.5719 53.4958 41.0574C53.4958 40.821 53.393 40.7027 53.187 40.7027C52.9506 40.7027 52.6789 40.9811 52.3723 41.5377C52.0653 42.0941 51.7553 42.9595 51.4431 44.1336ZM24.2213 54.1731L28.2061 58.0764V32.4613L24.2213 28.558V54.1731Z" fill="#E45136"/>
</g>
</g>
<defs>
<clipPath id="clip0_94_49">
<rect width="80" height="80" fill="white"/>
</clipPath>
<clipPath id="clip1_94_49">
<rect width="80" height="80" fill="white"/>
</clipPath>
</defs>
</svg>
